%TF.GenerationSoftware,KiCad,Pcbnew,6.0.4-6f826c9f35~116~ubuntu18.04.1*%
%TF.CreationDate,2023-04-04T21:07:19-04:00*%
%TF.ProjectId,ex_displays,65785f64-6973-4706-9c61-79732e6b6963,rev?*%
%TF.SameCoordinates,Original*%
%TF.FileFunction,Legend,Top*%
%TF.FilePolarity,Positive*%
%FSLAX46Y46*%
G04 Gerber Fmt 4.6, Leading zero omitted, Abs format (unit mm)*
G04 Created by KiCad (PCBNEW 6.0.4-6f826c9f35~116~ubuntu18.04.1) date 2023-04-04 21:07:19*
%MOMM*%
%LPD*%
G01*
G04 APERTURE LIST*
%ADD10C,0.000000*%
G04 APERTURE END LIST*
D10*
G36*
X98297449Y-55489260D02*
G01*
X97930469Y-55489260D01*
X97895775Y-55489877D01*
X97879438Y-55490648D01*
X97863775Y-55491727D01*
X97848784Y-55493114D01*
X97834467Y-55494810D01*
X97820823Y-55496814D01*
X97807852Y-55499126D01*
X97795554Y-55501747D01*
X97783930Y-55504676D01*
X97772979Y-55507913D01*
X97762701Y-55511459D01*
X97753096Y-55515313D01*
X97744165Y-55519475D01*
X97735907Y-55523945D01*
X97728322Y-55528724D01*
X97724729Y-55531382D01*
X97721250Y-55534170D01*
X97717884Y-55537089D01*
X97714631Y-55540138D01*
X97711492Y-55543319D01*
X97708466Y-55546630D01*
X97705554Y-55550072D01*
X97702755Y-55553645D01*
X97700071Y-55557348D01*
X97697499Y-55561183D01*
X97695042Y-55565149D01*
X97692698Y-55569246D01*
X97690468Y-55573474D01*
X97688353Y-55577833D01*
X97686351Y-55582324D01*
X97684463Y-55586946D01*
X97681029Y-55596584D01*
X97678052Y-55606747D01*
X97675531Y-55617437D01*
X97673469Y-55628653D01*
X97671863Y-55640396D01*
X97670716Y-55652666D01*
X97670028Y-55665465D01*
X97669798Y-55678791D01*
X98297181Y-55678791D01*
X98297181Y-55876107D01*
X97665771Y-55876107D01*
X97665982Y-55889046D01*
X97666614Y-55901487D01*
X97667668Y-55913430D01*
X97669144Y-55924874D01*
X97671041Y-55935817D01*
X97673359Y-55946259D01*
X97676100Y-55956199D01*
X97679261Y-55965637D01*
X97682844Y-55974571D01*
X97686849Y-55983002D01*
X97691276Y-55990927D01*
X97696124Y-55998346D01*
X97701393Y-56005259D01*
X97707084Y-56011665D01*
X97713197Y-56017563D01*
X97719731Y-56022952D01*
X97726681Y-56027973D01*
X97734442Y-56032667D01*
X97743014Y-56037035D01*
X97752399Y-56041077D01*
X97762595Y-56044793D01*
X97773603Y-56048185D01*
X97785422Y-56051251D01*
X97798053Y-56053993D01*
X97811496Y-56056410D01*
X97825750Y-56058504D01*
X97840816Y-56060275D01*
X97856694Y-56061723D01*
X97873383Y-56062849D01*
X97890885Y-56063652D01*
X97909197Y-56064134D01*
X97928322Y-56064295D01*
X98297181Y-56064295D01*
X98297181Y-56256241D01*
X97892617Y-56256241D01*
X97860538Y-56255734D01*
X97829434Y-56254215D01*
X97799306Y-56251682D01*
X97770155Y-56248136D01*
X97741980Y-56243578D01*
X97714783Y-56238006D01*
X97688563Y-56231422D01*
X97663322Y-56223824D01*
X97639059Y-56215214D01*
X97615774Y-56205590D01*
X97593469Y-56194954D01*
X97572143Y-56183304D01*
X97551797Y-56170642D01*
X97532432Y-56156966D01*
X97514047Y-56142278D01*
X97496644Y-56126576D01*
X97480260Y-56110006D01*
X97464933Y-56092713D01*
X97450662Y-56074696D01*
X97437449Y-56055955D01*
X97425293Y-56036491D01*
X97414194Y-56016304D01*
X97404152Y-55995392D01*
X97395167Y-55973757D01*
X97387240Y-55951399D01*
X97380369Y-55928317D01*
X97374555Y-55904511D01*
X97369798Y-55879982D01*
X97366099Y-55854730D01*
X97363456Y-55828753D01*
X97361870Y-55802054D01*
X97361342Y-55774630D01*
X97362100Y-55739603D01*
X97364375Y-55705896D01*
X97368166Y-55673510D01*
X97373473Y-55642445D01*
X97380296Y-55612699D01*
X97388636Y-55584272D01*
X97398493Y-55557164D01*
X97409865Y-55531375D01*
X97422754Y-55506904D01*
X97437160Y-55483751D01*
X97453082Y-55461915D01*
X97470520Y-55441396D01*
X97489474Y-55422194D01*
X97509945Y-55404307D01*
X97531932Y-55387737D01*
X97555436Y-55372482D01*
X97571666Y-55363123D01*
X97588544Y-55354373D01*
X97606070Y-55346232D01*
X97624245Y-55338699D01*
X97643067Y-55331773D01*
X97662537Y-55325453D01*
X97682656Y-55319739D01*
X97703422Y-55314630D01*
X97724837Y-55310125D01*
X97746900Y-55306223D01*
X97769610Y-55302924D01*
X97792969Y-55300226D01*
X97816976Y-55298129D01*
X97841631Y-55296632D01*
X97866934Y-55295735D01*
X97892885Y-55295436D01*
X98297449Y-55295436D01*
X98297449Y-55489260D01*
G37*
G36*
X109097180Y-55165502D02*
G01*
X108601072Y-55165502D01*
X108580840Y-55165804D01*
X108561220Y-55166710D01*
X108542211Y-55168219D01*
X108523815Y-55170330D01*
X108506032Y-55173044D01*
X108488864Y-55176361D01*
X108472311Y-55180279D01*
X108456374Y-55184798D01*
X108441053Y-55189918D01*
X108426349Y-55195638D01*
X108412264Y-55201959D01*
X108398798Y-55208879D01*
X108385952Y-55216399D01*
X108373726Y-55224517D01*
X108362122Y-55233234D01*
X108351140Y-55242550D01*
X108340556Y-55252730D01*
X108330653Y-55263540D01*
X108321430Y-55274980D01*
X108312888Y-55287050D01*
X108305027Y-55299751D01*
X108297848Y-55313084D01*
X108291350Y-55327048D01*
X108285535Y-55341643D01*
X108280402Y-55356872D01*
X108275952Y-55372733D01*
X108272186Y-55389226D01*
X108269104Y-55406354D01*
X108266706Y-55424115D01*
X108264993Y-55442511D01*
X108263965Y-55461541D01*
X108263622Y-55481207D01*
X109097178Y-55481207D01*
X109097178Y-55704831D01*
X108256911Y-55704831D01*
X108257288Y-55727277D01*
X108258420Y-55748913D01*
X108260305Y-55769737D01*
X108262943Y-55789751D01*
X108266332Y-55808955D01*
X108270473Y-55827350D01*
X108275364Y-55844934D01*
X108281005Y-55861710D01*
X108287394Y-55877678D01*
X108294531Y-55892837D01*
X108302416Y-55907189D01*
X108311046Y-55920733D01*
X108320423Y-55933470D01*
X108330544Y-55945401D01*
X108341409Y-55956526D01*
X108353017Y-55966844D01*
X108363471Y-55975036D01*
X108374598Y-55982700D01*
X108386398Y-55989835D01*
X108398869Y-55996442D01*
X108412012Y-56002520D01*
X108425826Y-56008069D01*
X108440311Y-56013090D01*
X108455467Y-56017583D01*
X108471293Y-56021546D01*
X108487788Y-56024982D01*
X108504953Y-56027889D01*
X108522787Y-56030267D01*
X108541289Y-56032117D01*
X108560459Y-56033438D01*
X108580297Y-56034231D01*
X108600803Y-56034495D01*
X109096911Y-56034495D01*
X109096911Y-56256241D01*
X108588724Y-56256241D01*
X108550119Y-56255665D01*
X108512629Y-56253939D01*
X108476250Y-56251063D01*
X108440985Y-56247037D01*
X108406831Y-56241864D01*
X108373789Y-56235543D01*
X108341859Y-56228075D01*
X108311039Y-56219462D01*
X108281330Y-56209703D01*
X108252731Y-56198800D01*
X108225242Y-56186753D01*
X108198862Y-56173564D01*
X108173591Y-56159233D01*
X108149429Y-56143760D01*
X108126374Y-56127147D01*
X108104428Y-56109395D01*
X108081752Y-56088766D01*
X108060536Y-56066848D01*
X108040780Y-56043641D01*
X108022486Y-56019143D01*
X108005652Y-55993355D01*
X107990281Y-55966278D01*
X107976371Y-55937911D01*
X107963924Y-55908254D01*
X107952940Y-55877307D01*
X107943419Y-55845070D01*
X107935362Y-55811543D01*
X107928769Y-55776727D01*
X107923640Y-55740620D01*
X107919977Y-55703224D01*
X107917778Y-55664538D01*
X107917045Y-55624562D01*
X107917753Y-55577907D01*
X107919877Y-55532976D01*
X107923416Y-55489768D01*
X107928371Y-55448283D01*
X107934741Y-55408520D01*
X107942528Y-55370479D01*
X107951730Y-55334160D01*
X107962347Y-55299562D01*
X107974381Y-55266685D01*
X107987830Y-55235528D01*
X108002694Y-55206092D01*
X108018975Y-55178375D01*
X108036671Y-55152377D01*
X108055783Y-55128099D01*
X108076310Y-55105539D01*
X108098254Y-55084696D01*
X108118747Y-55067630D01*
X108140661Y-55051664D01*
X108163998Y-55036799D01*
X108188757Y-55023035D01*
X108214938Y-55010373D01*
X108242541Y-54998811D01*
X108271565Y-54988351D01*
X108302012Y-54978992D01*
X108333881Y-54970733D01*
X108367172Y-54963576D01*
X108401884Y-54957520D01*
X108438019Y-54952565D01*
X108475576Y-54948712D01*
X108514554Y-54945959D01*
X108554955Y-54944307D01*
X108596777Y-54943757D01*
X109097180Y-54943757D01*
X109097180Y-55165502D01*
G37*
G36*
X117139058Y-55488990D02*
G01*
X116601073Y-55488990D01*
X116582886Y-55489321D01*
X116565875Y-55490312D01*
X116550040Y-55491963D01*
X116535381Y-55494276D01*
X116521896Y-55497249D01*
X116509586Y-55500882D01*
X116498450Y-55505176D01*
X116488488Y-55510131D01*
X116479700Y-55515747D01*
X116475746Y-55518803D01*
X116472085Y-55522023D01*
X116468717Y-55525409D01*
X116465642Y-55528960D01*
X116462860Y-55532676D01*
X116460371Y-55536558D01*
X116458176Y-55540604D01*
X116456273Y-55544816D01*
X116454663Y-55549193D01*
X116453346Y-55553735D01*
X116452321Y-55558442D01*
X116451590Y-55563314D01*
X116451151Y-55568352D01*
X116451005Y-55573555D01*
X116451482Y-55575808D01*
X116451907Y-55577943D01*
X116452274Y-55579963D01*
X116452582Y-55581877D01*
X116452827Y-55583690D01*
X116453005Y-55585409D01*
X116453115Y-55587040D01*
X116453152Y-55588588D01*
X116453772Y-55593791D01*
X116454625Y-55598828D01*
X116455710Y-55603701D01*
X116457028Y-55608408D01*
X116458579Y-55612950D01*
X116460363Y-55617327D01*
X116462379Y-55621538D01*
X116464629Y-55625585D01*
X116467111Y-55629466D01*
X116469826Y-55633182D01*
X116472774Y-55636733D01*
X116475954Y-55640119D01*
X116479368Y-55643340D01*
X116483014Y-55646395D01*
X116486893Y-55649286D01*
X116491005Y-55652011D01*
X116495349Y-55654571D01*
X116499927Y-55656966D01*
X116504737Y-55659195D01*
X116509780Y-55661260D01*
X116515056Y-55663159D01*
X116520564Y-55664894D01*
X116526306Y-55666463D01*
X116532280Y-55667866D01*
X116538487Y-55669105D01*
X116544926Y-55670179D01*
X116551599Y-55671087D01*
X116558504Y-55671830D01*
X116565643Y-55672408D01*
X116573013Y-55672821D01*
X116580617Y-55673069D01*
X116588454Y-55673152D01*
X116845099Y-55673152D01*
X116864346Y-55673344D01*
X116883027Y-55673919D01*
X116901140Y-55674879D01*
X116918686Y-55676222D01*
X116935664Y-55677949D01*
X116952073Y-55680060D01*
X116967914Y-55682555D01*
X116983186Y-55685433D01*
X116997889Y-55688696D01*
X117012021Y-55692342D01*
X117025584Y-55696372D01*
X117038576Y-55700785D01*
X117050997Y-55705583D01*
X117062846Y-55710764D01*
X117074124Y-55716329D01*
X117084830Y-55722278D01*
X117091618Y-55726466D01*
X117098191Y-55730823D01*
X117104548Y-55735350D01*
X117110690Y-55740046D01*
X117116616Y-55744913D01*
X117122327Y-55749949D01*
X117127822Y-55755154D01*
X117133102Y-55760530D01*
X117138166Y-55766074D01*
X117143015Y-55771788D01*
X117147648Y-55777672D01*
X117152066Y-55783724D01*
X117156268Y-55789946D01*
X117160255Y-55796338D01*
X117164026Y-55802898D01*
X117167582Y-55809628D01*
X117170922Y-55816527D01*
X117174047Y-55823594D01*
X117176956Y-55830831D01*
X117179650Y-55838237D01*
X117182128Y-55845811D01*
X117184391Y-55853555D01*
X117186438Y-55861467D01*
X117188270Y-55869548D01*
X117189886Y-55877798D01*
X117191287Y-55886216D01*
X117192472Y-55894803D01*
X117193442Y-55903559D01*
X117194735Y-55921575D01*
X117195166Y-55940265D01*
X117195166Y-55940266D01*
X117194874Y-55958104D01*
X117193996Y-55975475D01*
X117192533Y-55992379D01*
X117190485Y-56008815D01*
X117187852Y-56024782D01*
X117184633Y-56040280D01*
X117180830Y-56055307D01*
X117176441Y-56069863D01*
X117171467Y-56083948D01*
X117165908Y-56097560D01*
X117159764Y-56110698D01*
X117153035Y-56123362D01*
X117145720Y-56135551D01*
X117137821Y-56147264D01*
X117129336Y-56158501D01*
X117120266Y-56169260D01*
X117110376Y-56179789D01*
X117100032Y-56189634D01*
X117089234Y-56198794D01*
X117077981Y-56207271D01*
X117066274Y-56215065D01*
X117054113Y-56222178D01*
X117041495Y-56228609D01*
X117028422Y-56234360D01*
X117014893Y-56239431D01*
X117000907Y-56243824D01*
X116986464Y-56247539D01*
X116971564Y-56250576D01*
X116956206Y-56252938D01*
X116940390Y-56254623D01*
X116924115Y-56255634D01*
X116907382Y-56255971D01*
X116192482Y-56255971D01*
X116192482Y-56064026D01*
X116778254Y-56064026D01*
X116796686Y-56063629D01*
X116813929Y-56062440D01*
X116829983Y-56060458D01*
X116844848Y-56057683D01*
X116858524Y-56054116D01*
X116871010Y-56049755D01*
X116882308Y-56044602D01*
X116887510Y-56041728D01*
X116892416Y-56038656D01*
X116897024Y-56035386D01*
X116901335Y-56031918D01*
X116905348Y-56028251D01*
X116909064Y-56024386D01*
X116912483Y-56020323D01*
X116915605Y-56016062D01*
X116918429Y-56011602D01*
X116920956Y-56006945D01*
X116923186Y-56002089D01*
X116925119Y-55997035D01*
X116926754Y-55991783D01*
X116928092Y-55986332D01*
X116929132Y-55980684D01*
X116929875Y-55974837D01*
X116930321Y-55968792D01*
X116930470Y-55962549D01*
X116930321Y-55956317D01*
X116929875Y-55950303D01*
X116929132Y-55944507D01*
X116928092Y-55938927D01*
X116926754Y-55933562D01*
X116925118Y-55928410D01*
X116923186Y-55923470D01*
X116920956Y-55918740D01*
X116918429Y-55914220D01*
X116915605Y-55909907D01*
X116912483Y-55905801D01*
X116909064Y-55901901D01*
X116905348Y-55898203D01*
X116901334Y-55894709D01*
X116897023Y-55891415D01*
X116892415Y-55888320D01*
X116887510Y-55885424D01*
X116882307Y-55882725D01*
X116876807Y-55880221D01*
X116871010Y-55877911D01*
X116864915Y-55875794D01*
X116858523Y-55873868D01*
X116851834Y-55872132D01*
X116844847Y-55870585D01*
X116837564Y-55869225D01*
X116829983Y-55868050D01*
X116822104Y-55867061D01*
X116813929Y-55866254D01*
X116805456Y-55865629D01*
X116796686Y-55865184D01*
X116778254Y-55864830D01*
X116534497Y-55864830D01*
X116517423Y-55865690D01*
X116502012Y-55866273D01*
X116488213Y-55866605D01*
X116475974Y-55866709D01*
X116460785Y-55866555D01*
X116446023Y-55866093D01*
X116431689Y-55865322D01*
X116417781Y-55864243D01*
X116404300Y-55862856D01*
X116391244Y-55861160D01*
X116378614Y-55859156D01*
X116366409Y-55856844D01*
X116354629Y-55854223D01*
X116343273Y-55851294D01*
X116332341Y-55848057D01*
X116321832Y-55844512D01*
X116311747Y-55840658D01*
X116302084Y-55836496D01*
X116292844Y-55832025D01*
X116284026Y-55827246D01*
X116277237Y-55823148D01*
X116270665Y-55818856D01*
X116264307Y-55814370D01*
X116258166Y-55809691D01*
X116252240Y-55804817D01*
X116246529Y-55799750D01*
X116241034Y-55794489D01*
X116235754Y-55789033D01*
X116230690Y-55783384D01*
X116225841Y-55777539D01*
X116221208Y-55771501D01*
X116216790Y-55765268D01*
X116212587Y-55758840D01*
X116208601Y-55752217D01*
X116204829Y-55745400D01*
X116201274Y-55738387D01*
X116197933Y-55731180D01*
X116194809Y-55723777D01*
X116191899Y-55716180D01*
X116189206Y-55708386D01*
X116186727Y-55700398D01*
X116184465Y-55692214D01*
X116182417Y-55683834D01*
X116180585Y-55675258D01*
X116178969Y-55666487D01*
X116177568Y-55657520D01*
X116175413Y-55638997D01*
X116174120Y-55619689D01*
X116173689Y-55599596D01*
X116174050Y-55580866D01*
X116175130Y-55562731D01*
X116176931Y-55545191D01*
X116179453Y-55528245D01*
X116182695Y-55511894D01*
X116186657Y-55496137D01*
X116191340Y-55480975D01*
X116196743Y-55466408D01*
X116202867Y-55452435D01*
X116209711Y-55439056D01*
X116217275Y-55426273D01*
X116225560Y-55414084D01*
X116234566Y-55402489D01*
X116244292Y-55391489D01*
X116254738Y-55381084D01*
X116265904Y-55371273D01*
X116277792Y-55362057D01*
X116290399Y-55353435D01*
X116303727Y-55345409D01*
X116317775Y-55337976D01*
X116332544Y-55331138D01*
X116348033Y-55324895D01*
X116364243Y-55319247D01*
X116381173Y-55314193D01*
X116398824Y-55309733D01*
X116417195Y-55305868D01*
X116436286Y-55302598D01*
X116456098Y-55299922D01*
X116476630Y-55297841D01*
X116497883Y-55296355D01*
X116519856Y-55295463D01*
X116542550Y-55295166D01*
X117139058Y-55295166D01*
X117139058Y-55488990D01*
G37*
G36*
X100214764Y-55294898D02*
G01*
X100243097Y-55295367D01*
X100270712Y-55296773D01*
X100297609Y-55299118D01*
X100323787Y-55302402D01*
X100349246Y-55306624D01*
X100373987Y-55311787D01*
X100398007Y-55317889D01*
X100421308Y-55324931D01*
X100443888Y-55332914D01*
X100465747Y-55341838D01*
X100486886Y-55351703D01*
X100507302Y-55362511D01*
X100526997Y-55374260D01*
X100545969Y-55386953D01*
X100564218Y-55400588D01*
X100581744Y-55415167D01*
X100599689Y-55431856D01*
X100616476Y-55449407D01*
X100632105Y-55467820D01*
X100646576Y-55487096D01*
X100659890Y-55507233D01*
X100672046Y-55528232D01*
X100683044Y-55550094D01*
X100692885Y-55572817D01*
X100701568Y-55596402D01*
X100709093Y-55620849D01*
X100715461Y-55646159D01*
X100720670Y-55672330D01*
X100724723Y-55699363D01*
X100727617Y-55727258D01*
X100729353Y-55756015D01*
X100729932Y-55785635D01*
X100729798Y-55785769D01*
X100729664Y-55785905D01*
X100729142Y-55814171D01*
X100727576Y-55841587D01*
X100724967Y-55868152D01*
X100721317Y-55893865D01*
X100716624Y-55918726D01*
X100710892Y-55942734D01*
X100704119Y-55965887D01*
X100696308Y-55988186D01*
X100687459Y-56009628D01*
X100677572Y-56030215D01*
X100666648Y-56049944D01*
X100654689Y-56068815D01*
X100641695Y-56086827D01*
X100627666Y-56103979D01*
X100612604Y-56120271D01*
X100596509Y-56135702D01*
X100579336Y-56150280D01*
X100561136Y-56163916D01*
X100541909Y-56176608D01*
X100521656Y-56188357D01*
X100500376Y-56199165D01*
X100478068Y-56209030D01*
X100454733Y-56217954D01*
X100430368Y-56225937D01*
X100404976Y-56232979D01*
X100378554Y-56239081D01*
X100351102Y-56244244D01*
X100322621Y-56248466D01*
X100293109Y-56251750D01*
X100262567Y-56254095D01*
X100230993Y-56255502D01*
X100198388Y-56255971D01*
X99950067Y-56255971D01*
X99950067Y-56603890D01*
X99681342Y-56603890D01*
X99681342Y-56056777D01*
X99951945Y-56056777D01*
X100058254Y-56056777D01*
X100086618Y-56056475D01*
X100113825Y-56055569D01*
X100139873Y-56054060D01*
X100164764Y-56051949D01*
X100188497Y-56049234D01*
X100211073Y-56045918D01*
X100232491Y-56042000D01*
X100252751Y-56037481D01*
X100271853Y-56032361D01*
X100289798Y-56026641D01*
X100306585Y-56020320D01*
X100322214Y-56013400D01*
X100336685Y-56005880D01*
X100349999Y-55997762D01*
X100362155Y-55989045D01*
X100373154Y-55979729D01*
X100381446Y-55971358D01*
X100389210Y-55962350D01*
X100396443Y-55952705D01*
X100403145Y-55942422D01*
X100409316Y-55931501D01*
X100414954Y-55919940D01*
X100420059Y-55907739D01*
X100424630Y-55894897D01*
X100428666Y-55881413D01*
X100432167Y-55867287D01*
X100435131Y-55852517D01*
X100437558Y-55837104D01*
X100439447Y-55821045D01*
X100440797Y-55804340D01*
X100441608Y-55786989D01*
X100441878Y-55768991D01*
X100442147Y-55768991D01*
X100441952Y-55752377D01*
X100441367Y-55736362D01*
X100440392Y-55720945D01*
X100439026Y-55706126D01*
X100437271Y-55691907D01*
X100435125Y-55678288D01*
X100432590Y-55665269D01*
X100429664Y-55652850D01*
X100426348Y-55641033D01*
X100422642Y-55629816D01*
X100418546Y-55619201D01*
X100414060Y-55609188D01*
X100409183Y-55599778D01*
X100403917Y-55590971D01*
X100398260Y-55582766D01*
X100392214Y-55575165D01*
X100387765Y-55570310D01*
X100383078Y-55565608D01*
X100378152Y-55561061D01*
X100372986Y-55556667D01*
X100367582Y-55552428D01*
X100361939Y-55548343D01*
X100349936Y-55540635D01*
X100336979Y-55533544D01*
X100323067Y-55527070D01*
X100308201Y-55521212D01*
X100292382Y-55515971D01*
X100275609Y-55511346D01*
X100257883Y-55507338D01*
X100239205Y-55503947D01*
X100219575Y-55501172D01*
X100198994Y-55499014D01*
X100177461Y-55497473D01*
X100154977Y-55496548D01*
X100131543Y-55496239D01*
X99951945Y-55496239D01*
X99951945Y-56056777D01*
X99681342Y-56056777D01*
X99681342Y-55294898D01*
X100214764Y-55294898D01*
G37*
G36*
X100839715Y-55740002D02*
G01*
X100842084Y-55706589D01*
X100846034Y-55674391D01*
X100851564Y-55643409D01*
X100858674Y-55613642D01*
X100867366Y-55585092D01*
X100877640Y-55557759D01*
X100889496Y-55531642D01*
X100902934Y-55506744D01*
X100917955Y-55483063D01*
X100934559Y-55460600D01*
X100952747Y-55439356D01*
X100972518Y-55419331D01*
X100993874Y-55400526D01*
X101016815Y-55382940D01*
X101041341Y-55366575D01*
X101059531Y-55355699D01*
X101078262Y-55345523D01*
X101097535Y-55336045D01*
X101117348Y-55327267D01*
X101137702Y-55319189D01*
X101158598Y-55311811D01*
X101180034Y-55305134D01*
X101202012Y-55299158D01*
X101224531Y-55293884D01*
X101247591Y-55289312D01*
X101271192Y-55285442D01*
X101295334Y-55282275D01*
X101320018Y-55279811D01*
X101345242Y-55278050D01*
X101371008Y-55276994D01*
X101397314Y-55276642D01*
X101423546Y-55277010D01*
X101449103Y-55278113D01*
X101474009Y-55279953D01*
X101498287Y-55282527D01*
X101521962Y-55285835D01*
X101545055Y-55289878D01*
X101567592Y-55294655D01*
X101589596Y-55300165D01*
X101611090Y-55306409D01*
X101632098Y-55313384D01*
X101652644Y-55321093D01*
X101672751Y-55329532D01*
X101692442Y-55338704D01*
X101711742Y-55348606D01*
X101730673Y-55359239D01*
X101749260Y-55370602D01*
X101761970Y-55378945D01*
X101774277Y-55387565D01*
X101786181Y-55396462D01*
X101797683Y-55405635D01*
X101808781Y-55415085D01*
X101819477Y-55424812D01*
X101829769Y-55434815D01*
X101839659Y-55445095D01*
X101849145Y-55455651D01*
X101858229Y-55466483D01*
X101866909Y-55477592D01*
X101875186Y-55488977D01*
X101883060Y-55500639D01*
X101890530Y-55512576D01*
X101897597Y-55524790D01*
X101904260Y-55537280D01*
X101910520Y-55550046D01*
X101916377Y-55563088D01*
X101921830Y-55576406D01*
X101926879Y-55589999D01*
X101931525Y-55603869D01*
X101935767Y-55618015D01*
X101939605Y-55632436D01*
X101943040Y-55647133D01*
X101946070Y-55662105D01*
X101948697Y-55677354D01*
X101952738Y-55708677D01*
X101955163Y-55741102D01*
X101955972Y-55774628D01*
X101955704Y-55774629D01*
X101955119Y-55802953D01*
X101953363Y-55830540D01*
X101950436Y-55857392D01*
X101946338Y-55883510D01*
X101941067Y-55908892D01*
X101934624Y-55933540D01*
X101927009Y-55957455D01*
X101918221Y-55980636D01*
X101908259Y-56003084D01*
X101897123Y-56024800D01*
X101884814Y-56045783D01*
X101871329Y-56066035D01*
X101856670Y-56085555D01*
X101840835Y-56104344D01*
X101823824Y-56122402D01*
X101805637Y-56139730D01*
X101786205Y-56156357D01*
X101765960Y-56171908D01*
X101744904Y-56186383D01*
X101723037Y-56199784D01*
X101700357Y-56212111D01*
X101676866Y-56223364D01*
X101652563Y-56233543D01*
X101627449Y-56242649D01*
X101601523Y-56250683D01*
X101574785Y-56257644D01*
X101547236Y-56263533D01*
X101518875Y-56268350D01*
X101489702Y-56272096D01*
X101459718Y-56274772D01*
X101428922Y-56276377D01*
X101397315Y-56276911D01*
X101365731Y-56276389D01*
X101335003Y-56274823D01*
X101305125Y-56272213D01*
X101276090Y-56268560D01*
X101247892Y-56263864D01*
X101220524Y-56258125D01*
X101193980Y-56251344D01*
X101168254Y-56243522D01*
X101143340Y-56234658D01*
X101119232Y-56224753D01*
X101095922Y-56213808D01*
X101073405Y-56201823D01*
X101051675Y-56188798D01*
X101030725Y-56174733D01*
X101010548Y-56159630D01*
X100991140Y-56143488D01*
X100972708Y-56126380D01*
X100955465Y-56108479D01*
X100939411Y-56089786D01*
X100924546Y-56070300D01*
X100910870Y-56050021D01*
X100898384Y-56028949D01*
X100887087Y-56007085D01*
X100876979Y-55984427D01*
X100868060Y-55960977D01*
X100860330Y-55936735D01*
X100853790Y-55911699D01*
X100848439Y-55885871D01*
X100844277Y-55859250D01*
X100841304Y-55831836D01*
X100839520Y-55803629D01*
X100839008Y-55778657D01*
X101122148Y-55778657D01*
X101122424Y-55792889D01*
X101123254Y-55806894D01*
X101124637Y-55820671D01*
X101126573Y-55834219D01*
X101129060Y-55847537D01*
X101132100Y-55860625D01*
X101135690Y-55873482D01*
X101139832Y-55886106D01*
X101144524Y-55898498D01*
X101149766Y-55910657D01*
X101155558Y-55922581D01*
X101161900Y-55934269D01*
X101168790Y-55945722D01*
X101176229Y-55956938D01*
X101184216Y-55967917D01*
X101192751Y-55978657D01*
X101202790Y-55990216D01*
X101213175Y-56001031D01*
X101223906Y-56011103D01*
X101234983Y-56020431D01*
X101246406Y-56029016D01*
X101258175Y-56036856D01*
X101270290Y-56043951D01*
X101282752Y-56050301D01*
X101295559Y-56055905D01*
X101308712Y-56060764D01*
X101322211Y-56064876D01*
X101336057Y-56068241D01*
X101350248Y-56070859D01*
X101364786Y-56072730D01*
X101379669Y-56073853D01*
X101394899Y-56074227D01*
X101410177Y-56073868D01*
X101425197Y-56072792D01*
X101439948Y-56070999D01*
X101454417Y-56068489D01*
X101468591Y-56065261D01*
X101482459Y-56061316D01*
X101496009Y-56056654D01*
X101509228Y-56051274D01*
X101522104Y-56045177D01*
X101534625Y-56038363D01*
X101546778Y-56030832D01*
X101558553Y-56022583D01*
X101569935Y-56013617D01*
X101580913Y-56003934D01*
X101591476Y-55993533D01*
X101601610Y-55982415D01*
X101610189Y-55971945D01*
X101618210Y-55961174D01*
X101625671Y-55950101D01*
X101632575Y-55938728D01*
X101638922Y-55927054D01*
X101644713Y-55915080D01*
X101649949Y-55902807D01*
X101654631Y-55890234D01*
X101658758Y-55877362D01*
X101662333Y-55864192D01*
X101665356Y-55850724D01*
X101667827Y-55836958D01*
X101669748Y-55822895D01*
X101671119Y-55808535D01*
X101671941Y-55793878D01*
X101672214Y-55778926D01*
X101672214Y-55778656D01*
X101671947Y-55762882D01*
X101671144Y-55747473D01*
X101669806Y-55732429D01*
X101667931Y-55717749D01*
X101665521Y-55703435D01*
X101662573Y-55689486D01*
X101659089Y-55675902D01*
X101655066Y-55662682D01*
X101650506Y-55649828D01*
X101645408Y-55637339D01*
X101639771Y-55625214D01*
X101633594Y-55613454D01*
X101626878Y-55602060D01*
X101619622Y-55591030D01*
X101611826Y-55580365D01*
X101603489Y-55570065D01*
X101593866Y-55559337D01*
X101583821Y-55549302D01*
X101573354Y-55539958D01*
X101562466Y-55531307D01*
X101551156Y-55523348D01*
X101539425Y-55516081D01*
X101527272Y-55509506D01*
X101514698Y-55503623D01*
X101501702Y-55498432D01*
X101488284Y-55493933D01*
X101474445Y-55490127D01*
X101460184Y-55487012D01*
X101445502Y-55484590D01*
X101430398Y-55482860D01*
X101414873Y-55481822D01*
X101398926Y-55481476D01*
X101386279Y-55481749D01*
X101373808Y-55482570D01*
X101361514Y-55483937D01*
X101349396Y-55485850D01*
X101337454Y-55488310D01*
X101325688Y-55491314D01*
X101314098Y-55494864D01*
X101302684Y-55498959D01*
X101291447Y-55503597D01*
X101280386Y-55508780D01*
X101269501Y-55514506D01*
X101258792Y-55520775D01*
X101248259Y-55527587D01*
X101237903Y-55534941D01*
X101227722Y-55542837D01*
X101217718Y-55551274D01*
X101206116Y-55561838D01*
X101195267Y-55572892D01*
X101185172Y-55584435D01*
X101175830Y-55596467D01*
X101167240Y-55608986D01*
X101159401Y-55621993D01*
X101152312Y-55635485D01*
X101145973Y-55649462D01*
X101140382Y-55663924D01*
X101135540Y-55678870D01*
X101131444Y-55694298D01*
X101128095Y-55710209D01*
X101125492Y-55726601D01*
X101123633Y-55743473D01*
X101122519Y-55760825D01*
X101122148Y-55778657D01*
X100839008Y-55778657D01*
X100838925Y-55774629D01*
X100839715Y-55740002D01*
G37*
G36*
X104819865Y-56255971D02*
G01*
X104538523Y-56255971D01*
X104538523Y-55295166D01*
X104819865Y-55295166D01*
X104819865Y-56255971D01*
G37*
G36*
X112089646Y-55740002D02*
G01*
X112092015Y-55706589D01*
X112095965Y-55674391D01*
X112101495Y-55643409D01*
X112108606Y-55613642D01*
X112117298Y-55585092D01*
X112127572Y-55557759D01*
X112139428Y-55531642D01*
X112152866Y-55506744D01*
X112167887Y-55483063D01*
X112184491Y-55460600D01*
X112202679Y-55439356D01*
X112222451Y-55419331D01*
X112243807Y-55400526D01*
X112266748Y-55382940D01*
X112291274Y-55366575D01*
X112309464Y-55355699D01*
X112328195Y-55345523D01*
X112347468Y-55336045D01*
X112367284Y-55327267D01*
X112387642Y-55319189D01*
X112408544Y-55311811D01*
X112429989Y-55305134D01*
X112451978Y-55299158D01*
X112474511Y-55293884D01*
X112497589Y-55289312D01*
X112521211Y-55285442D01*
X112545380Y-55282275D01*
X112570094Y-55279811D01*
X112595354Y-55278050D01*
X112621161Y-55276994D01*
X112647515Y-55276642D01*
X112673791Y-55277010D01*
X112699381Y-55278113D01*
X112724309Y-55279953D01*
X112748601Y-55282527D01*
X112772281Y-55285835D01*
X112795374Y-55289878D01*
X112817904Y-55294655D01*
X112839897Y-55300165D01*
X112861377Y-55306409D01*
X112882369Y-55313384D01*
X112902898Y-55321093D01*
X112922988Y-55329532D01*
X112942665Y-55338704D01*
X112961953Y-55348606D01*
X112980876Y-55359239D01*
X112999461Y-55370602D01*
X113012170Y-55378945D01*
X113024474Y-55387565D01*
X113036375Y-55396462D01*
X113047872Y-55405635D01*
X113058964Y-55415085D01*
X113069652Y-55424812D01*
X113079937Y-55434815D01*
X113089817Y-55445095D01*
X113099294Y-55455651D01*
X113108367Y-55466483D01*
X113117036Y-55477592D01*
X113125301Y-55488977D01*
X113133163Y-55500639D01*
X113140621Y-55512576D01*
X113147676Y-55524790D01*
X113154327Y-55537280D01*
X113160574Y-55550046D01*
X113166419Y-55563088D01*
X113171859Y-55576406D01*
X113176897Y-55589999D01*
X113181531Y-55603869D01*
X113185762Y-55618015D01*
X113189590Y-55632436D01*
X113193014Y-55647133D01*
X113196036Y-55662105D01*
X113198654Y-55677354D01*
X113202682Y-55708677D01*
X113205099Y-55741102D01*
X113205904Y-55774628D01*
X113205636Y-55774629D01*
X113205050Y-55802953D01*
X113203294Y-55830540D01*
X113200367Y-55857392D01*
X113196269Y-55883510D01*
X113190999Y-55908892D01*
X113184556Y-55933540D01*
X113176941Y-55957455D01*
X113168153Y-55980636D01*
X113158191Y-56003084D01*
X113147055Y-56024800D01*
X113134745Y-56045783D01*
X113121261Y-56066035D01*
X113106602Y-56085555D01*
X113090767Y-56104344D01*
X113073756Y-56122402D01*
X113055569Y-56139730D01*
X113036136Y-56156357D01*
X113015892Y-56171908D01*
X112994835Y-56186383D01*
X112972968Y-56199784D01*
X112950288Y-56212111D01*
X112926797Y-56223364D01*
X112902495Y-56233543D01*
X112877381Y-56242649D01*
X112851455Y-56250683D01*
X112824717Y-56257644D01*
X112797168Y-56263533D01*
X112768807Y-56268350D01*
X112739634Y-56272096D01*
X112709650Y-56274772D01*
X112678854Y-56276377D01*
X112647246Y-56276911D01*
X112615662Y-56276389D01*
X112584935Y-56274823D01*
X112555056Y-56272213D01*
X112526021Y-56268560D01*
X112497823Y-56263864D01*
X112470455Y-56258125D01*
X112443912Y-56251344D01*
X112418186Y-56243522D01*
X112393272Y-56234658D01*
X112369163Y-56224753D01*
X112345854Y-56213808D01*
X112323337Y-56201823D01*
X112301607Y-56188798D01*
X112280657Y-56174733D01*
X112260481Y-56159630D01*
X112241072Y-56143488D01*
X112222640Y-56126380D01*
X112205396Y-56108479D01*
X112189342Y-56089786D01*
X112174477Y-56070300D01*
X112160801Y-56050021D01*
X112148315Y-56028949D01*
X112137018Y-56007085D01*
X112126910Y-55984427D01*
X112117991Y-55960977D01*
X112110261Y-55936735D01*
X112103721Y-55911699D01*
X112098370Y-55885871D01*
X112094207Y-55859250D01*
X112091235Y-55831836D01*
X112089451Y-55803629D01*
X112088939Y-55778657D01*
X112372080Y-55778657D01*
X112372357Y-55792889D01*
X112373187Y-55806894D01*
X112374570Y-55820671D01*
X112376506Y-55834219D01*
X112378993Y-55847537D01*
X112382033Y-55860625D01*
X112385623Y-55873482D01*
X112389765Y-55886106D01*
X112394457Y-55898498D01*
X112399700Y-55910657D01*
X112405492Y-55922581D01*
X112411833Y-55934269D01*
X112418723Y-55945722D01*
X112426162Y-55956938D01*
X112434150Y-55967917D01*
X112442685Y-55978657D01*
X112452724Y-55990216D01*
X112463108Y-56001031D01*
X112473839Y-56011103D01*
X112484916Y-56020431D01*
X112496339Y-56029016D01*
X112508108Y-56036856D01*
X112520223Y-56043951D01*
X112532685Y-56050301D01*
X112545492Y-56055905D01*
X112558645Y-56060764D01*
X112572144Y-56064876D01*
X112585990Y-56068241D01*
X112600182Y-56070859D01*
X112614719Y-56072730D01*
X112629603Y-56073853D01*
X112644833Y-56074227D01*
X112660108Y-56073868D01*
X112675120Y-56072792D01*
X112689859Y-56070999D01*
X112704313Y-56068489D01*
X112718471Y-56065261D01*
X112732322Y-56061316D01*
X112745856Y-56056654D01*
X112759060Y-56051274D01*
X112771925Y-56045177D01*
X112784440Y-56038363D01*
X112796592Y-56030832D01*
X112808372Y-56022583D01*
X112819768Y-56013617D01*
X112830770Y-56003934D01*
X112841365Y-55993533D01*
X112851544Y-55982415D01*
X112860126Y-55971945D01*
X112868155Y-55961174D01*
X112875630Y-55950101D01*
X112882551Y-55938728D01*
X112888918Y-55927054D01*
X112894732Y-55915080D01*
X112899992Y-55902807D01*
X112904699Y-55890234D01*
X112908852Y-55877362D01*
X112912451Y-55864192D01*
X112915496Y-55850724D01*
X112917988Y-55836958D01*
X112919926Y-55822895D01*
X112921310Y-55808535D01*
X112922140Y-55793878D01*
X112922417Y-55778926D01*
X112922146Y-55778656D01*
X112921879Y-55762882D01*
X112921076Y-55747473D01*
X112919738Y-55732429D01*
X112917864Y-55717749D01*
X112915453Y-55703435D01*
X112912506Y-55689486D01*
X112909021Y-55675902D01*
X112904999Y-55662682D01*
X112900439Y-55649828D01*
X112895341Y-55637339D01*
X112889704Y-55625214D01*
X112883527Y-55613454D01*
X112876811Y-55602060D01*
X112869556Y-55591030D01*
X112861760Y-55580365D01*
X112853423Y-55570065D01*
X112843799Y-55559337D01*
X112833754Y-55549302D01*
X112823287Y-55539958D01*
X112812399Y-55531307D01*
X112801089Y-55523348D01*
X112789358Y-55516081D01*
X112777205Y-55509506D01*
X112764631Y-55503623D01*
X112751634Y-55498432D01*
X112738217Y-55493933D01*
X112724378Y-55490127D01*
X112710117Y-55487012D01*
X112695434Y-55484590D01*
X112680330Y-55482860D01*
X112664805Y-55481822D01*
X112648858Y-55481476D01*
X112636211Y-55481749D01*
X112623740Y-55482570D01*
X112611446Y-55483937D01*
X112599328Y-55485850D01*
X112587386Y-55488310D01*
X112575620Y-55491314D01*
X112564030Y-55494864D01*
X112552617Y-55498959D01*
X112541379Y-55503597D01*
X112530318Y-55508780D01*
X112519433Y-55514506D01*
X112508724Y-55520775D01*
X112498191Y-55527587D01*
X112487835Y-55534941D01*
X112477654Y-55542837D01*
X112467650Y-55551274D01*
X112456048Y-55561838D01*
X112445199Y-55572892D01*
X112435105Y-55584435D01*
X112425763Y-55596467D01*
X112417172Y-55608986D01*
X112409333Y-55621993D01*
X112402245Y-55635485D01*
X112395905Y-55649462D01*
X112390315Y-55663924D01*
X112385473Y-55678870D01*
X112381377Y-55694298D01*
X112378028Y-55710209D01*
X112375425Y-55726601D01*
X112373566Y-55743473D01*
X112372452Y-55760825D01*
X112372080Y-55778657D01*
X112088939Y-55778657D01*
X112088856Y-55774629D01*
X112089646Y-55740002D01*
G37*
G36*
X114893960Y-56255971D02*
G01*
X114612618Y-56255971D01*
X114612618Y-55295166D01*
X114893960Y-55295166D01*
X114893960Y-56255971D01*
G37*
G36*
X113314387Y-55748529D02*
G01*
X113316076Y-55719857D01*
X113318890Y-55692106D01*
X113322830Y-55665275D01*
X113327894Y-55639367D01*
X113334082Y-55614381D01*
X113341394Y-55590318D01*
X113349830Y-55567179D01*
X113359389Y-55544966D01*
X113370071Y-55523678D01*
X113381875Y-55503316D01*
X113394801Y-55483882D01*
X113408848Y-55465376D01*
X113424017Y-55447799D01*
X113440306Y-55431152D01*
X113457716Y-55415435D01*
X113475969Y-55400856D01*
X113495192Y-55387221D01*
X113515384Y-55374529D01*
X113536546Y-55362779D01*
X113558679Y-55351972D01*
X113581783Y-55342107D01*
X113605857Y-55333183D01*
X113630904Y-55325200D01*
X113656923Y-55318157D01*
X113683914Y-55312055D01*
X113711878Y-55306893D01*
X113740816Y-55302670D01*
X113770727Y-55299386D01*
X113801611Y-55297041D01*
X113833471Y-55295635D01*
X113866305Y-55295166D01*
X114372345Y-55295166D01*
X114372345Y-56222145D01*
X114372616Y-56222145D01*
X114372251Y-56245535D01*
X114371156Y-56268190D01*
X114369330Y-56290110D01*
X114366774Y-56311294D01*
X114363486Y-56331744D01*
X114359466Y-56351459D01*
X114354713Y-56370441D01*
X114349229Y-56388689D01*
X114343011Y-56406205D01*
X114336060Y-56422987D01*
X114328374Y-56439038D01*
X114319955Y-56454356D01*
X114310801Y-56468944D01*
X114300912Y-56482800D01*
X114290288Y-56495925D01*
X114278927Y-56508320D01*
X114266745Y-56519926D01*
X114253657Y-56530783D01*
X114239661Y-56540891D01*
X114224757Y-56550250D01*
X114208943Y-56558860D01*
X114192220Y-56566722D01*
X114174586Y-56573835D01*
X114156040Y-56580199D01*
X114136583Y-56585815D01*
X114116212Y-56590682D01*
X114094927Y-56594800D01*
X114072727Y-56598169D01*
X114049612Y-56600790D01*
X114025580Y-56602662D01*
X114000631Y-56603785D01*
X113974764Y-56604159D01*
X113428994Y-56604159D01*
X113428994Y-56414093D01*
X113924830Y-56414093D01*
X113945458Y-56413482D01*
X113964758Y-56411651D01*
X113973910Y-56410278D01*
X113982730Y-56408600D01*
X113991218Y-56406616D01*
X113999373Y-56404328D01*
X114007196Y-56401734D01*
X114014687Y-56398835D01*
X114021846Y-56395630D01*
X114028671Y-56392121D01*
X114035165Y-56388307D01*
X114041326Y-56384187D01*
X114047154Y-56379762D01*
X114052650Y-56375032D01*
X114057813Y-56369997D01*
X114062643Y-56364656D01*
X114067140Y-56359011D01*
X114071305Y-56353060D01*
X114075137Y-56346805D01*
X114078636Y-56340244D01*
X114081801Y-56333378D01*
X114084634Y-56326206D01*
X114087134Y-56318730D01*
X114089300Y-56310948D01*
X114091134Y-56302861D01*
X114092634Y-56294470D01*
X114093801Y-56285772D01*
X114094634Y-56276770D01*
X114095134Y-56267463D01*
X114095301Y-56257850D01*
X113837313Y-56257850D01*
X113812526Y-56257536D01*
X113788299Y-56256591D01*
X113764630Y-56255017D01*
X113741521Y-56252813D01*
X113718970Y-56249977D01*
X113696977Y-56246511D01*
X113675541Y-56242413D01*
X113654663Y-56237682D01*
X113634341Y-56232320D01*
X113614576Y-56226325D01*
X113595367Y-56219697D01*
X113576713Y-56212435D01*
X113558615Y-56204540D01*
X113541072Y-56196010D01*
X113524083Y-56186845D01*
X113507649Y-56177046D01*
X113495732Y-56169366D01*
X113484192Y-56161379D01*
X113473030Y-56153082D01*
X113462246Y-56144478D01*
X113451840Y-56135565D01*
X113441811Y-56126343D01*
X113432160Y-56116813D01*
X113422887Y-56106974D01*
X113413992Y-56096827D01*
X113405475Y-56086370D01*
X113397336Y-56075605D01*
X113389575Y-56064531D01*
X113382192Y-56053148D01*
X113375188Y-56041457D01*
X113368561Y-56029456D01*
X113362313Y-56017146D01*
X113356443Y-56004527D01*
X113350952Y-55991599D01*
X113345838Y-55978362D01*
X113341104Y-55964815D01*
X113336748Y-55950959D01*
X113332770Y-55936794D01*
X113329171Y-55922320D01*
X113325950Y-55907536D01*
X113320646Y-55877040D01*
X113316856Y-55845305D01*
X113314582Y-55812332D01*
X113314003Y-55786173D01*
X113599730Y-55786173D01*
X113599966Y-55803051D01*
X113600673Y-55819356D01*
X113601852Y-55835088D01*
X113603501Y-55850246D01*
X113605621Y-55864830D01*
X113608210Y-55878839D01*
X113611270Y-55892273D01*
X113614798Y-55905133D01*
X113618795Y-55917416D01*
X113623260Y-55929123D01*
X113628193Y-55940254D01*
X113633594Y-55950808D01*
X113639462Y-55960784D01*
X113645797Y-55970183D01*
X113652598Y-55979004D01*
X113659865Y-55987246D01*
X113669447Y-55996606D01*
X113679873Y-56005355D01*
X113691142Y-56013496D01*
X113703254Y-56021029D01*
X113716209Y-56027955D01*
X113730007Y-56034275D01*
X113744648Y-56039989D01*
X113760133Y-56045098D01*
X113776460Y-56049603D01*
X113793631Y-56053505D01*
X113811644Y-56056805D01*
X113830501Y-56059502D01*
X113850201Y-56061599D01*
X113870745Y-56063096D01*
X113892131Y-56063994D01*
X113914361Y-56064293D01*
X114095303Y-56064293D01*
X114095303Y-55494629D01*
X113945773Y-55494629D01*
X113921426Y-55494937D01*
X113898016Y-55495862D01*
X113875542Y-55497403D01*
X113854006Y-55499562D01*
X113833405Y-55502336D01*
X113813740Y-55505728D01*
X113795010Y-55509736D01*
X113777214Y-55514360D01*
X113760353Y-55519601D01*
X113744426Y-55525459D01*
X113729433Y-55531934D01*
X113715373Y-55539025D01*
X113702245Y-55546732D01*
X113690050Y-55555056D01*
X113678787Y-55563997D01*
X113668456Y-55573555D01*
X113660163Y-55582266D01*
X113652399Y-55591588D01*
X113645166Y-55601520D01*
X113638463Y-55612062D01*
X113632292Y-55623214D01*
X113626654Y-55634977D01*
X113621549Y-55647350D01*
X113616978Y-55660334D01*
X113612942Y-55673927D01*
X113609441Y-55688131D01*
X113606477Y-55702946D01*
X113604050Y-55718370D01*
X113602161Y-55734405D01*
X113600811Y-55751051D01*
X113600000Y-55768306D01*
X113599730Y-55786173D01*
X113314003Y-55786173D01*
X113313824Y-55778120D01*
X113314387Y-55748529D01*
G37*
G36*
X120107113Y-54943757D02*
G01*
X120107113Y-55295436D01*
X120351408Y-55295436D01*
X120382912Y-55295904D01*
X120413497Y-55297311D01*
X120443162Y-55299656D01*
X120471907Y-55302940D01*
X120499733Y-55307162D01*
X120526637Y-55312324D01*
X120552621Y-55318427D01*
X120577683Y-55325469D01*
X120601824Y-55333452D01*
X120625042Y-55342376D01*
X120647338Y-55352241D01*
X120668711Y-55363049D01*
X120689160Y-55374798D01*
X120708686Y-55387490D01*
X120727288Y-55401126D01*
X120744965Y-55415704D01*
X120761642Y-55431135D01*
X120777242Y-55447427D01*
X120791767Y-55464580D01*
X120805216Y-55482592D01*
X120817589Y-55501463D01*
X120828886Y-55521192D01*
X120839108Y-55541778D01*
X120848253Y-55563221D01*
X120856323Y-55585519D01*
X120863316Y-55608673D01*
X120869234Y-55632680D01*
X120874076Y-55657541D01*
X120877841Y-55683254D01*
X120880531Y-55709819D01*
X120882145Y-55737235D01*
X120882682Y-55765428D01*
X120882311Y-55787343D01*
X120881188Y-55809074D01*
X120879318Y-55830428D01*
X120876699Y-55851403D01*
X120873334Y-55871999D01*
X120869222Y-55892215D01*
X120864363Y-55912052D01*
X120858759Y-55931508D01*
X120852409Y-55950584D01*
X120845313Y-55969278D01*
X120837473Y-55987591D01*
X120828889Y-56005523D01*
X120819560Y-56023072D01*
X120809488Y-56040238D01*
X120798672Y-56057021D01*
X120787114Y-56073421D01*
X120769525Y-56095559D01*
X120750784Y-56116269D01*
X120730892Y-56135551D01*
X120709849Y-56153405D01*
X120687654Y-56169830D01*
X120664307Y-56184827D01*
X120639810Y-56198395D01*
X120614161Y-56210536D01*
X120587360Y-56221248D01*
X120559408Y-56230532D01*
X120530305Y-56238387D01*
X120500051Y-56244814D01*
X120468644Y-56249813D01*
X120436087Y-56253384D01*
X120402378Y-56255526D01*
X120367518Y-56256241D01*
X119833825Y-56256241D01*
X119833825Y-56060535D01*
X120107382Y-56060535D01*
X120278389Y-56060535D01*
X120299901Y-56060214D01*
X120320646Y-56059251D01*
X120340624Y-56057644D01*
X120359836Y-56055392D01*
X120378282Y-56052496D01*
X120395962Y-56048955D01*
X120412877Y-56044766D01*
X120429027Y-56039931D01*
X120444412Y-56034447D01*
X120459033Y-56028315D01*
X120472891Y-56021533D01*
X120485985Y-56014100D01*
X120498317Y-56006017D01*
X120509886Y-55997281D01*
X120520692Y-55987893D01*
X120530737Y-55977851D01*
X120538543Y-55968907D01*
X120545850Y-55959491D01*
X120552659Y-55949603D01*
X120558968Y-55939243D01*
X120564778Y-55928412D01*
X120570085Y-55917108D01*
X120574892Y-55905333D01*
X120579195Y-55893086D01*
X120582995Y-55880367D01*
X120586291Y-55867176D01*
X120589083Y-55853513D01*
X120591368Y-55839378D01*
X120593147Y-55824771D01*
X120594418Y-55809693D01*
X120595182Y-55794142D01*
X120595437Y-55778120D01*
X120595168Y-55778120D01*
X120594938Y-55761729D01*
X120594250Y-55745880D01*
X120593103Y-55730571D01*
X120591498Y-55715804D01*
X120589435Y-55701578D01*
X120586914Y-55687893D01*
X120583937Y-55674749D01*
X120580504Y-55662146D01*
X120576614Y-55650084D01*
X120572268Y-55638564D01*
X120567467Y-55627584D01*
X120562211Y-55617146D01*
X120556500Y-55607249D01*
X120550335Y-55597892D01*
X120543717Y-55589077D01*
X120536644Y-55580804D01*
X120527103Y-55571004D01*
X120516699Y-55561839D01*
X120505432Y-55553309D01*
X120493302Y-55545413D01*
X120480308Y-55538152D01*
X120466451Y-55531523D01*
X120451729Y-55525528D01*
X120436142Y-55520166D01*
X120419690Y-55515436D01*
X120402372Y-55511338D01*
X120384189Y-55507871D01*
X120365139Y-55505036D01*
X120345222Y-55502831D01*
X120324439Y-55501257D01*
X120302787Y-55500312D01*
X120280268Y-55499998D01*
X120107382Y-55499998D01*
X120107382Y-56060535D01*
X119833825Y-56060535D01*
X119833825Y-54943757D01*
X120107113Y-54943757D01*
G37*
G36*
X114893960Y-55176777D02*
G01*
X114612618Y-55176777D01*
X114612618Y-54943488D01*
X114893960Y-54943488D01*
X114893960Y-55176777D01*
G37*
G36*
X111911677Y-56256241D02*
G01*
X111630334Y-56256241D01*
X111630334Y-54943757D01*
X111911677Y-54943757D01*
X111911677Y-56256241D01*
G37*
G36*
X106131812Y-47490334D02*
G01*
X104179059Y-47490334D01*
X104099388Y-47491520D01*
X104022150Y-47495078D01*
X103947344Y-47501008D01*
X103874970Y-47509310D01*
X103805026Y-47519984D01*
X103737512Y-47533031D01*
X103672425Y-47548449D01*
X103609765Y-47566240D01*
X103549530Y-47586402D01*
X103491720Y-47608937D01*
X103436333Y-47633844D01*
X103383368Y-47661122D01*
X103332824Y-47690773D01*
X103284699Y-47722796D01*
X103238993Y-47757191D01*
X103195704Y-47793958D01*
X103153966Y-47834057D01*
X103114927Y-47876635D01*
X103078585Y-47921694D01*
X103044941Y-47969235D01*
X103013992Y-48019257D01*
X102985739Y-48071763D01*
X102960180Y-48126752D01*
X102937315Y-48184226D01*
X102917143Y-48244186D01*
X102899663Y-48306631D01*
X102884874Y-48371563D01*
X102872777Y-48438983D01*
X102863368Y-48508891D01*
X102856649Y-48581289D01*
X102852618Y-48656177D01*
X102851275Y-48733555D01*
X106131812Y-48733555D01*
X106131812Y-49613555D01*
X102825234Y-49613555D01*
X102826713Y-49701863D01*
X102831149Y-49786986D01*
X102838542Y-49868926D01*
X102848892Y-49947683D01*
X102862200Y-50023255D01*
X102878465Y-50095644D01*
X102897687Y-50164849D01*
X102919866Y-50230870D01*
X102945002Y-50293708D01*
X102973096Y-50353362D01*
X103004146Y-50409832D01*
X103038154Y-50463119D01*
X103075120Y-50513222D01*
X103115042Y-50560141D01*
X103157922Y-50603876D01*
X103203758Y-50644427D01*
X103244895Y-50676661D01*
X103288674Y-50706818D01*
X103335096Y-50734898D01*
X103384161Y-50760900D01*
X103435868Y-50784824D01*
X103490218Y-50806670D01*
X103547210Y-50826438D01*
X103606845Y-50844126D01*
X103669123Y-50859734D01*
X103734043Y-50873263D01*
X103801606Y-50884712D01*
X103871812Y-50894079D01*
X103944660Y-50901366D01*
X104020150Y-50906572D01*
X104098284Y-50909695D01*
X104179059Y-50910736D01*
X106131812Y-50910736D01*
X106131812Y-51783219D01*
X104130201Y-51783219D01*
X103978357Y-51780961D01*
X103830880Y-51774184D01*
X103687770Y-51762890D01*
X103549026Y-51747079D01*
X103414649Y-51726749D01*
X103284639Y-51701902D01*
X103158995Y-51672538D01*
X103037717Y-51638656D01*
X102920807Y-51600256D01*
X102808263Y-51557339D01*
X102700085Y-51509904D01*
X102596274Y-51457951D01*
X102496830Y-51401481D01*
X102401753Y-51340493D01*
X102311042Y-51274988D01*
X102224697Y-51204965D01*
X102135411Y-51123846D01*
X102051883Y-51037638D01*
X101974113Y-50946343D01*
X101902101Y-50849960D01*
X101835847Y-50748493D01*
X101775353Y-50641941D01*
X101720618Y-50530306D01*
X101671643Y-50413589D01*
X101628429Y-50291791D01*
X101590975Y-50164914D01*
X101559282Y-50032958D01*
X101533351Y-49895925D01*
X101513181Y-49753816D01*
X101498774Y-49606633D01*
X101490129Y-49454375D01*
X101487247Y-49297045D01*
X101490035Y-49113437D01*
X101498396Y-48936604D01*
X101512332Y-48766547D01*
X101531841Y-48603266D01*
X101556923Y-48446759D01*
X101587577Y-48297027D01*
X101623804Y-48154069D01*
X101665603Y-48017884D01*
X101712973Y-47888473D01*
X101765915Y-47765835D01*
X101824427Y-47649969D01*
X101888510Y-47540875D01*
X101958162Y-47438553D01*
X102033384Y-47343002D01*
X102114176Y-47254222D01*
X102200536Y-47172213D01*
X102281202Y-47105065D01*
X102367461Y-47042247D01*
X102459313Y-46983758D01*
X102556757Y-46929600D01*
X102659793Y-46879771D01*
X102768421Y-46834274D01*
X102882640Y-46793108D01*
X103002449Y-46756273D01*
X103127849Y-46723771D01*
X103258839Y-46695601D01*
X103395419Y-46671763D01*
X103537588Y-46652259D01*
X103685345Y-46637088D01*
X103838691Y-46626252D01*
X103997625Y-46619750D01*
X104162147Y-46617582D01*
X106131812Y-46617582D01*
X106131812Y-47490334D01*
G37*
G36*
X120882683Y-55765502D02*
G01*
X120882682Y-55765428D01*
X120882685Y-55765233D01*
X120882683Y-55765502D01*
G37*
G36*
X98845637Y-46617582D02*
G01*
X98966782Y-46618881D01*
X99083875Y-46622779D01*
X99196916Y-46629274D01*
X99305906Y-46638366D01*
X99410843Y-46650056D01*
X99511728Y-46664342D01*
X99608561Y-46681225D01*
X99701342Y-46700703D01*
X99790071Y-46722776D01*
X99874748Y-46747445D01*
X99955373Y-46774708D01*
X100031946Y-46804566D01*
X100104467Y-46837017D01*
X100172936Y-46872062D01*
X100237353Y-46909700D01*
X100297718Y-46949931D01*
X100329999Y-46973554D01*
X100361257Y-46998115D01*
X100391490Y-47023613D01*
X100420699Y-47050049D01*
X100448884Y-47077424D01*
X100476045Y-47105736D01*
X100502182Y-47134986D01*
X100527294Y-47165174D01*
X100551382Y-47196301D01*
X100574445Y-47228366D01*
X100596484Y-47261370D01*
X100617498Y-47295312D01*
X100637488Y-47330192D01*
X100656452Y-47366012D01*
X100674393Y-47402771D01*
X100691308Y-47440468D01*
X100722065Y-47518680D01*
X100748722Y-47600649D01*
X100771279Y-47686376D01*
X100789735Y-47775862D01*
X100804091Y-47869107D01*
X100814346Y-47966113D01*
X100820499Y-48066879D01*
X100822550Y-48171408D01*
X100821556Y-48242551D01*
X100818573Y-48311919D01*
X100813601Y-48379512D01*
X100806640Y-48445330D01*
X100797688Y-48509371D01*
X100786747Y-48571637D01*
X100773815Y-48632125D01*
X100758892Y-48690837D01*
X100741978Y-48747771D01*
X100723072Y-48802928D01*
X100702173Y-48856306D01*
X100679282Y-48907905D01*
X100654398Y-48957725D01*
X100627521Y-49005766D01*
X100598650Y-49052027D01*
X100567785Y-49096508D01*
X100530754Y-49144497D01*
X100491338Y-49190409D01*
X100449537Y-49234245D01*
X100405352Y-49276005D01*
X100358782Y-49315688D01*
X100309827Y-49353295D01*
X100258488Y-49388826D01*
X100204765Y-49422280D01*
X100148656Y-49453658D01*
X100090163Y-49482959D01*
X100029285Y-49510185D01*
X99966023Y-49535334D01*
X99900376Y-49558406D01*
X99832344Y-49579402D01*
X99761928Y-49598322D01*
X99689127Y-49615166D01*
X101068993Y-51783219D01*
X99771006Y-51783219D01*
X98507919Y-49756106D01*
X97082953Y-49756106D01*
X97082953Y-51783220D01*
X95917315Y-51783220D01*
X95917315Y-48859730D01*
X97091006Y-48859730D01*
X98557852Y-48859730D01*
X98695584Y-48858459D01*
X98821468Y-48854646D01*
X98935510Y-48848291D01*
X99037718Y-48839394D01*
X99128096Y-48827955D01*
X99206652Y-48813975D01*
X99241499Y-48806031D01*
X99273392Y-48797452D01*
X99302333Y-48788237D01*
X99328322Y-48778387D01*
X99348018Y-48769714D01*
X99367089Y-48760405D01*
X99385536Y-48750460D01*
X99403359Y-48739881D01*
X99420557Y-48728665D01*
X99437130Y-48716814D01*
X99453078Y-48704328D01*
X99468401Y-48691206D01*
X99483100Y-48677449D01*
X99497173Y-48663056D01*
X99510622Y-48648028D01*
X99523446Y-48632364D01*
X99535644Y-48616064D01*
X99547218Y-48599130D01*
X99558166Y-48581559D01*
X99568489Y-48563354D01*
X99578187Y-48544512D01*
X99587260Y-48525036D01*
X99595707Y-48504924D01*
X99603529Y-48484176D01*
X99610725Y-48462793D01*
X99617296Y-48440774D01*
X99623241Y-48418120D01*
X99628560Y-48394830D01*
X99633254Y-48370905D01*
X99637323Y-48346344D01*
X99640765Y-48321148D01*
X99643582Y-48295317D01*
X99645773Y-48268850D01*
X99647338Y-48241747D01*
X99648587Y-48185759D01*
X99648590Y-48185904D01*
X99648590Y-48185636D01*
X99648587Y-48185759D01*
X99647565Y-48139617D01*
X99644488Y-48095187D01*
X99639362Y-48052614D01*
X99632185Y-48011898D01*
X99622959Y-47973040D01*
X99611683Y-47936040D01*
X99598359Y-47900898D01*
X99582986Y-47867615D01*
X99565565Y-47836192D01*
X99546097Y-47806628D01*
X99524581Y-47778924D01*
X99501019Y-47753081D01*
X99475410Y-47729099D01*
X99447755Y-47706977D01*
X99418054Y-47686718D01*
X99386308Y-47668320D01*
X99352319Y-47651351D01*
X99315889Y-47635476D01*
X99277019Y-47620696D01*
X99235708Y-47607012D01*
X99191958Y-47594421D01*
X99145769Y-47582926D01*
X99097140Y-47572525D01*
X99046073Y-47563220D01*
X98992568Y-47555009D01*
X98936625Y-47547892D01*
X98878245Y-47541871D01*
X98817428Y-47536944D01*
X98754174Y-47533113D01*
X98688485Y-47530376D01*
X98620359Y-47528733D01*
X98549798Y-47528186D01*
X97091006Y-47528186D01*
X97091006Y-48859730D01*
X95917315Y-48859730D01*
X95917315Y-46617582D01*
X98845637Y-46617582D01*
G37*
G36*
X117813693Y-48774629D02*
G01*
X117813693Y-50158521D01*
X118775033Y-50158521D01*
X118899151Y-50160371D01*
X119019627Y-50165920D01*
X119136462Y-50175168D01*
X119249656Y-50188114D01*
X119359210Y-50204759D01*
X119465125Y-50225101D01*
X119567401Y-50249141D01*
X119666041Y-50276877D01*
X119761043Y-50308310D01*
X119852410Y-50343439D01*
X119940141Y-50382264D01*
X120024238Y-50424784D01*
X120104701Y-50470999D01*
X120181532Y-50520909D01*
X120254730Y-50574512D01*
X120324297Y-50631810D01*
X120389884Y-50692681D01*
X120451243Y-50756907D01*
X120508372Y-50824489D01*
X120561272Y-50895426D01*
X120609943Y-50969720D01*
X120654383Y-51047371D01*
X120694593Y-51128381D01*
X120730572Y-51212750D01*
X120762319Y-51300478D01*
X120789835Y-51391568D01*
X120813119Y-51486019D01*
X120832170Y-51583832D01*
X120846988Y-51685008D01*
X120857573Y-51789548D01*
X120863924Y-51897453D01*
X120866042Y-52008723D01*
X120864569Y-52095806D01*
X120860153Y-52181385D01*
X120852792Y-52265459D01*
X120842489Y-52348027D01*
X120829242Y-52429087D01*
X120813052Y-52508640D01*
X120793920Y-52586684D01*
X120771846Y-52663220D01*
X120746831Y-52738245D01*
X120718875Y-52811759D01*
X120687978Y-52883761D01*
X120654140Y-52954252D01*
X120617363Y-53023229D01*
X120577646Y-53090692D01*
X120534990Y-53156640D01*
X120489396Y-53221072D01*
X120420231Y-53308162D01*
X120346531Y-53389634D01*
X120268293Y-53465486D01*
X120185520Y-53535720D01*
X120098209Y-53600335D01*
X120006363Y-53659332D01*
X119909980Y-53712709D01*
X119809060Y-53760468D01*
X119703604Y-53802609D01*
X119593611Y-53839130D01*
X119479082Y-53870033D01*
X119360016Y-53895317D01*
X119236414Y-53914983D01*
X119108276Y-53929029D01*
X118975601Y-53937457D01*
X118838389Y-53940267D01*
X116738255Y-53940267D01*
X116738255Y-53170334D01*
X117813693Y-53170334D01*
X118486710Y-53170334D01*
X118571334Y-53169063D01*
X118652955Y-53165250D01*
X118731574Y-53158897D01*
X118807189Y-53150002D01*
X118879799Y-53138567D01*
X118949405Y-53124593D01*
X119016004Y-53108078D01*
X119079597Y-53089025D01*
X119140182Y-53067433D01*
X119197759Y-53043302D01*
X119252326Y-53016633D01*
X119303884Y-52987427D01*
X119352431Y-52955683D01*
X119397967Y-52921403D01*
X119440490Y-52884586D01*
X119480000Y-52845233D01*
X119510818Y-52809979D01*
X119539648Y-52772875D01*
X119566489Y-52733922D01*
X119591342Y-52693118D01*
X119614207Y-52650465D01*
X119635084Y-52605962D01*
X119653973Y-52559610D01*
X119670873Y-52511407D01*
X119685785Y-52461355D01*
X119698709Y-52409452D01*
X119709644Y-52355700D01*
X119718591Y-52300099D01*
X119725550Y-52242647D01*
X119730521Y-52183345D01*
X119733503Y-52122194D01*
X119734498Y-52059193D01*
X119733598Y-51994763D01*
X119730898Y-51932448D01*
X119726400Y-51872248D01*
X119720101Y-51814163D01*
X119712003Y-51758194D01*
X119702106Y-51704341D01*
X119690409Y-51652605D01*
X119676913Y-51602985D01*
X119661617Y-51555482D01*
X119644521Y-51510097D01*
X119625626Y-51466830D01*
X119604932Y-51425682D01*
X119582438Y-51386652D01*
X119558144Y-51349742D01*
X119532051Y-51314951D01*
X119504159Y-51282280D01*
X119466662Y-51243758D01*
X119425750Y-51207721D01*
X119381423Y-51174169D01*
X119333681Y-51143102D01*
X119282526Y-51114521D01*
X119227959Y-51088425D01*
X119169979Y-51064815D01*
X119108589Y-51043689D01*
X119043788Y-51025050D01*
X118975578Y-51008895D01*
X118903960Y-50995226D01*
X118828933Y-50984042D01*
X118750499Y-50975343D01*
X118668660Y-50969130D01*
X118583415Y-50965402D01*
X118494765Y-50964159D01*
X117813693Y-50964159D01*
X117813693Y-53170334D01*
X116738255Y-53170334D01*
X116738255Y-48774629D01*
X117813693Y-48774629D01*
G37*
G36*
X118306576Y-56256241D02*
G01*
X118025235Y-56256241D01*
X118025235Y-54943757D01*
X118306576Y-54943757D01*
X118306576Y-56256241D01*
G37*
G36*
X110336899Y-55740002D02*
G01*
X110339277Y-55706589D01*
X110343238Y-55674391D01*
X110348783Y-55643409D01*
X110355910Y-55613642D01*
X110364619Y-55585092D01*
X110374908Y-55557759D01*
X110386778Y-55531642D01*
X110400227Y-55506744D01*
X110415254Y-55483063D01*
X110431859Y-55460600D01*
X110450041Y-55439356D01*
X110469799Y-55419331D01*
X110491132Y-55400526D01*
X110514040Y-55382940D01*
X110538522Y-55366575D01*
X110556712Y-55355699D01*
X110575444Y-55345523D01*
X110594717Y-55336045D01*
X110614533Y-55327267D01*
X110634891Y-55319189D01*
X110655792Y-55311811D01*
X110677237Y-55305134D01*
X110699226Y-55299158D01*
X110721759Y-55293884D01*
X110744837Y-55289312D01*
X110768460Y-55285442D01*
X110792628Y-55282275D01*
X110817343Y-55279811D01*
X110842603Y-55278050D01*
X110868410Y-55276994D01*
X110894764Y-55276642D01*
X110921040Y-55277010D01*
X110946630Y-55278113D01*
X110971558Y-55279953D01*
X110995850Y-55282527D01*
X111019530Y-55285835D01*
X111042623Y-55289878D01*
X111065153Y-55294655D01*
X111087146Y-55300165D01*
X111108626Y-55306409D01*
X111129618Y-55313384D01*
X111150147Y-55321093D01*
X111170238Y-55329532D01*
X111189915Y-55338704D01*
X111209202Y-55348606D01*
X111228126Y-55359239D01*
X111246710Y-55370602D01*
X111259419Y-55378945D01*
X111271724Y-55387565D01*
X111283624Y-55396462D01*
X111295121Y-55405635D01*
X111306213Y-55415085D01*
X111316902Y-55424812D01*
X111327186Y-55434815D01*
X111337066Y-55445095D01*
X111346543Y-55455651D01*
X111355616Y-55466483D01*
X111364285Y-55477592D01*
X111372550Y-55488977D01*
X111380412Y-55500639D01*
X111387870Y-55512576D01*
X111394925Y-55524790D01*
X111401576Y-55537280D01*
X111407823Y-55550046D01*
X111413667Y-55563088D01*
X111419108Y-55576406D01*
X111424145Y-55589999D01*
X111428780Y-55603869D01*
X111433011Y-55618015D01*
X111436838Y-55632436D01*
X111440263Y-55647133D01*
X111443284Y-55662105D01*
X111445903Y-55677354D01*
X111449931Y-55708677D01*
X111452348Y-55741102D01*
X111453153Y-55774628D01*
X111453154Y-55774629D01*
X111452569Y-55802953D01*
X111450813Y-55830540D01*
X111447886Y-55857392D01*
X111443788Y-55883510D01*
X111438517Y-55908892D01*
X111432075Y-55933540D01*
X111424459Y-55957455D01*
X111415671Y-55980636D01*
X111405709Y-56003084D01*
X111394574Y-56024800D01*
X111382264Y-56045783D01*
X111368779Y-56066035D01*
X111354120Y-56085555D01*
X111338285Y-56104344D01*
X111321274Y-56122402D01*
X111303087Y-56139730D01*
X111283654Y-56156357D01*
X111263409Y-56171908D01*
X111242353Y-56186383D01*
X111220486Y-56199784D01*
X111197806Y-56212111D01*
X111174315Y-56223364D01*
X111150013Y-56233543D01*
X111124899Y-56242649D01*
X111098973Y-56250683D01*
X111072235Y-56257644D01*
X111044686Y-56263533D01*
X111016325Y-56268350D01*
X110987152Y-56272096D01*
X110957168Y-56274772D01*
X110926372Y-56276377D01*
X110894764Y-56276911D01*
X110863181Y-56276389D01*
X110832453Y-56274823D01*
X110802575Y-56272213D01*
X110773540Y-56268560D01*
X110745341Y-56263864D01*
X110717973Y-56258125D01*
X110691430Y-56251344D01*
X110665704Y-56243522D01*
X110640790Y-56234658D01*
X110616681Y-56224753D01*
X110593372Y-56213808D01*
X110570855Y-56201823D01*
X110549125Y-56188798D01*
X110528175Y-56174733D01*
X110507998Y-56159630D01*
X110488590Y-56143488D01*
X110470154Y-56126380D01*
X110452903Y-56108479D01*
X110436835Y-56089786D01*
X110421953Y-56070300D01*
X110408258Y-56050021D01*
X110395749Y-56028949D01*
X110384427Y-56007085D01*
X110374294Y-55984427D01*
X110365350Y-55960977D01*
X110357597Y-55936735D01*
X110351033Y-55911699D01*
X110345662Y-55885871D01*
X110341483Y-55859250D01*
X110338497Y-55831836D01*
X110336704Y-55803629D01*
X110336190Y-55778657D01*
X110619597Y-55778657D01*
X110619874Y-55792889D01*
X110620704Y-55806894D01*
X110622089Y-55820671D01*
X110624027Y-55834219D01*
X110626518Y-55847537D01*
X110629564Y-55860625D01*
X110633163Y-55873482D01*
X110637316Y-55886106D01*
X110642022Y-55898498D01*
X110647282Y-55910657D01*
X110653096Y-55922581D01*
X110659464Y-55934269D01*
X110666385Y-55945722D01*
X110673860Y-55956938D01*
X110681889Y-55967917D01*
X110690471Y-55978657D01*
X110700510Y-55990216D01*
X110710895Y-56001031D01*
X110721626Y-56011103D01*
X110732703Y-56020431D01*
X110744126Y-56029016D01*
X110755895Y-56036856D01*
X110768010Y-56043951D01*
X110780471Y-56050301D01*
X110793278Y-56055905D01*
X110806432Y-56060764D01*
X110819931Y-56064876D01*
X110833776Y-56068241D01*
X110847968Y-56070859D01*
X110862506Y-56072730D01*
X110877390Y-56073853D01*
X110892620Y-56074227D01*
X110907895Y-56073868D01*
X110922907Y-56072792D01*
X110937645Y-56070999D01*
X110952099Y-56068489D01*
X110966257Y-56065261D01*
X110980109Y-56061316D01*
X110993642Y-56056654D01*
X111006847Y-56051274D01*
X111019713Y-56045177D01*
X111032227Y-56038363D01*
X111044380Y-56030832D01*
X111056160Y-56022583D01*
X111067556Y-56013617D01*
X111078557Y-56003934D01*
X111089153Y-55993533D01*
X111099331Y-55982415D01*
X111107914Y-55971945D01*
X111115942Y-55961174D01*
X111123417Y-55950101D01*
X111130338Y-55938728D01*
X111136706Y-55927054D01*
X111142519Y-55915080D01*
X111147780Y-55902807D01*
X111152486Y-55890234D01*
X111156638Y-55877362D01*
X111160237Y-55864192D01*
X111163283Y-55850724D01*
X111165774Y-55836958D01*
X111167712Y-55822895D01*
X111169096Y-55808535D01*
X111169927Y-55793878D01*
X111170204Y-55778926D01*
X111169665Y-55778656D01*
X111169397Y-55762882D01*
X111168595Y-55747473D01*
X111167256Y-55732429D01*
X111165382Y-55717749D01*
X111162972Y-55703435D01*
X111160024Y-55689486D01*
X111156539Y-55675902D01*
X111152517Y-55662682D01*
X111147957Y-55649828D01*
X111142859Y-55637339D01*
X111137221Y-55625214D01*
X111131045Y-55613454D01*
X111124329Y-55602060D01*
X111117073Y-55591030D01*
X111109277Y-55580365D01*
X111100940Y-55570065D01*
X111091317Y-55559337D01*
X111081271Y-55549302D01*
X111070805Y-55539958D01*
X111059916Y-55531307D01*
X111048607Y-55523348D01*
X111036875Y-55516081D01*
X111024723Y-55509506D01*
X111012148Y-55503623D01*
X110999152Y-55498432D01*
X110985735Y-55493933D01*
X110971896Y-55490127D01*
X110957635Y-55487012D01*
X110942953Y-55484590D01*
X110927849Y-55482860D01*
X110912323Y-55481822D01*
X110896376Y-55481476D01*
X110883729Y-55481749D01*
X110871258Y-55482570D01*
X110858964Y-55483937D01*
X110846845Y-55485850D01*
X110834903Y-55488310D01*
X110823137Y-55491314D01*
X110811547Y-55494864D01*
X110800134Y-55498959D01*
X110788896Y-55503597D01*
X110777835Y-55508780D01*
X110766950Y-55514506D01*
X110756241Y-55520775D01*
X110745709Y-55527587D01*
X110735352Y-55534941D01*
X110725172Y-55542837D01*
X110715168Y-55551274D01*
X110703566Y-55561838D01*
X110692718Y-55572892D01*
X110682623Y-55584435D01*
X110673280Y-55596467D01*
X110664690Y-55608986D01*
X110656851Y-55621993D01*
X110649762Y-55635485D01*
X110643423Y-55649462D01*
X110637832Y-55663924D01*
X110632990Y-55678870D01*
X110628894Y-55694298D01*
X110625545Y-55710209D01*
X110622942Y-55726601D01*
X110621083Y-55743473D01*
X110619968Y-55760825D01*
X110619597Y-55778657D01*
X110336190Y-55778657D01*
X110336107Y-55774629D01*
X110336899Y-55740002D01*
G37*
G36*
X116019597Y-55489260D02*
G01*
X115652619Y-55489260D01*
X115617924Y-55489877D01*
X115601587Y-55490648D01*
X115585923Y-55491727D01*
X115570932Y-55493114D01*
X115556615Y-55494810D01*
X115542970Y-55496814D01*
X115529999Y-55499126D01*
X115517702Y-55501747D01*
X115506077Y-55504676D01*
X115495126Y-55507913D01*
X115484848Y-55511459D01*
X115475243Y-55515313D01*
X115466312Y-55519475D01*
X115458054Y-55523945D01*
X115450469Y-55528724D01*
X115446876Y-55531382D01*
X115443396Y-55534170D01*
X115440030Y-55537089D01*
X115436778Y-55540138D01*
X115433638Y-55543319D01*
X115430613Y-55546630D01*
X115427700Y-55550072D01*
X115424902Y-55553645D01*
X115422217Y-55557348D01*
X115419646Y-55561183D01*
X115417188Y-55565149D01*
X115414845Y-55569246D01*
X115412615Y-55573474D01*
X115410499Y-55577833D01*
X115408497Y-55582324D01*
X115406609Y-55586946D01*
X115403176Y-55596584D01*
X115400198Y-55606747D01*
X115397678Y-55617437D01*
X115395615Y-55628653D01*
X115394010Y-55640396D01*
X115392863Y-55652666D01*
X115392175Y-55665465D01*
X115391945Y-55678791D01*
X116019328Y-55678791D01*
X116019328Y-55876107D01*
X115387650Y-55876107D01*
X115387861Y-55889046D01*
X115388493Y-55901487D01*
X115389547Y-55913430D01*
X115391022Y-55924874D01*
X115392919Y-55935817D01*
X115395237Y-55946259D01*
X115397977Y-55956199D01*
X115401139Y-55965637D01*
X115404722Y-55974571D01*
X115408727Y-55983002D01*
X115413153Y-55990927D01*
X115418001Y-55998346D01*
X115423271Y-56005259D01*
X115428962Y-56011665D01*
X115435075Y-56017563D01*
X115441609Y-56022952D01*
X115448558Y-56027973D01*
X115456319Y-56032667D01*
X115464892Y-56037035D01*
X115474277Y-56041077D01*
X115484473Y-56044793D01*
X115495481Y-56048185D01*
X115507300Y-56051251D01*
X115519932Y-56053993D01*
X115533374Y-56056410D01*
X115547629Y-56058504D01*
X115562695Y-56060275D01*
X115578573Y-56061723D01*
X115595262Y-56062849D01*
X115612763Y-56063652D01*
X115631076Y-56064134D01*
X115650200Y-56064295D01*
X116019059Y-56064295D01*
X116019059Y-56256241D01*
X115615035Y-56256241D01*
X115582955Y-56255734D01*
X115551851Y-56254215D01*
X115521723Y-56251682D01*
X115492571Y-56248136D01*
X115464397Y-56243578D01*
X115437199Y-56238006D01*
X115410979Y-56231422D01*
X115385737Y-56223824D01*
X115361474Y-56215214D01*
X115338189Y-56205590D01*
X115315884Y-56194954D01*
X115294558Y-56183304D01*
X115274213Y-56170642D01*
X115254847Y-56156966D01*
X115236463Y-56142278D01*
X115219059Y-56126576D01*
X115202675Y-56110006D01*
X115187348Y-56092713D01*
X115173078Y-56074696D01*
X115159865Y-56055955D01*
X115147709Y-56036491D01*
X115136610Y-56016304D01*
X115126568Y-55995392D01*
X115117584Y-55973757D01*
X115109656Y-55951399D01*
X115102785Y-55928317D01*
X115096971Y-55904511D01*
X115092214Y-55879982D01*
X115088515Y-55854730D01*
X115085872Y-55828753D01*
X115084286Y-55802054D01*
X115083758Y-55774630D01*
X115084516Y-55739603D01*
X115086790Y-55705896D01*
X115090580Y-55673510D01*
X115095884Y-55642445D01*
X115102704Y-55612699D01*
X115111038Y-55584272D01*
X115120886Y-55557164D01*
X115132247Y-55531375D01*
X115145122Y-55506904D01*
X115159510Y-55483751D01*
X115175410Y-55461915D01*
X115192822Y-55441396D01*
X115211746Y-55422194D01*
X115232181Y-55404307D01*
X115254126Y-55387737D01*
X115277583Y-55372482D01*
X115293813Y-55363123D01*
X115310691Y-55354373D01*
X115328217Y-55346232D01*
X115346391Y-55338699D01*
X115365213Y-55331773D01*
X115384684Y-55325453D01*
X115404802Y-55319739D01*
X115425569Y-55314630D01*
X115446984Y-55310125D01*
X115469047Y-55306223D01*
X115491758Y-55302924D01*
X115515117Y-55300226D01*
X115539124Y-55298129D01*
X115563780Y-55296632D01*
X115589083Y-55295735D01*
X115615035Y-55295436D01*
X116019597Y-55295436D01*
X116019597Y-55489260D01*
G37*
G36*
X102686109Y-55295961D02*
G01*
X102713192Y-55296734D01*
X102739236Y-55298023D01*
X102764241Y-55299826D01*
X102788206Y-55302144D01*
X102811131Y-55304975D01*
X102833016Y-55308321D01*
X102853859Y-55312179D01*
X102873662Y-55316551D01*
X102892422Y-55321434D01*
X102910141Y-55326830D01*
X102926816Y-55332737D01*
X102942449Y-55339156D01*
X102957039Y-55346085D01*
X102970585Y-55353525D01*
X102983087Y-55361475D01*
X102990123Y-55366533D01*
X102996936Y-55371841D01*
X103003525Y-55377399D01*
X103009891Y-55383207D01*
X103016033Y-55389265D01*
X103021952Y-55395574D01*
X103027648Y-55402132D01*
X103033121Y-55408941D01*
X103038370Y-55416000D01*
X103043395Y-55423309D01*
X103048198Y-55430868D01*
X103052777Y-55438677D01*
X103057132Y-55446736D01*
X103061265Y-55455046D01*
X103065173Y-55463605D01*
X103068859Y-55472415D01*
X103075560Y-55490784D01*
X103081367Y-55510154D01*
X103086281Y-55530524D01*
X103090302Y-55551895D01*
X103093429Y-55574266D01*
X103095663Y-55597637D01*
X103097003Y-55622009D01*
X103097450Y-55647381D01*
X103097450Y-56256241D01*
X102822550Y-56256241D01*
X102822550Y-55648992D01*
X102822453Y-55640885D01*
X102822160Y-55633073D01*
X102821673Y-55625558D01*
X102820990Y-55618338D01*
X102820112Y-55611413D01*
X102819039Y-55604785D01*
X102817772Y-55598452D01*
X102816309Y-55592415D01*
X102814651Y-55586673D01*
X102812798Y-55581228D01*
X102810750Y-55576078D01*
X102808507Y-55571223D01*
X102806068Y-55566665D01*
X102803435Y-55562402D01*
X102800607Y-55558435D01*
X102797584Y-55554763D01*
X102794766Y-55551766D01*
X102791798Y-55548865D01*
X102788681Y-55546059D01*
X102785415Y-55543349D01*
X102778434Y-55538217D01*
X102770855Y-55533467D01*
X102762679Y-55529100D01*
X102753905Y-55525114D01*
X102744533Y-55521510D01*
X102734564Y-55518287D01*
X102723996Y-55515445D01*
X102712831Y-55512982D01*
X102701068Y-55510900D01*
X102688708Y-55509197D01*
X102675750Y-55507873D01*
X102662194Y-55506928D01*
X102648040Y-55506362D01*
X102633288Y-55506173D01*
X102407785Y-55506173D01*
X102407785Y-56256509D01*
X102136913Y-56256509D01*
X102136913Y-55295703D01*
X102657987Y-55295703D01*
X102686109Y-55295961D01*
G37*
G36*
X120239887Y-46966231D02*
G01*
X120246894Y-46966765D01*
X120253798Y-46967643D01*
X120260593Y-46968858D01*
X120267268Y-46970399D01*
X120273815Y-46972259D01*
X120280226Y-46974429D01*
X120286491Y-46976900D01*
X120292603Y-46979663D01*
X120298552Y-46982710D01*
X120304329Y-46986033D01*
X120309927Y-46989622D01*
X120315336Y-46993468D01*
X120320548Y-46997564D01*
X120325554Y-47001900D01*
X120330346Y-47006468D01*
X120334914Y-47011260D01*
X120339250Y-47016265D01*
X120343346Y-47021477D01*
X120347193Y-47026885D01*
X120350781Y-47032482D01*
X120354103Y-47038259D01*
X120357150Y-47044206D01*
X120359913Y-47050316D01*
X120362383Y-47056580D01*
X120364552Y-47062989D01*
X120366411Y-47069534D01*
X120367952Y-47076207D01*
X120369165Y-47082999D01*
X120370042Y-47089901D01*
X120370575Y-47096905D01*
X120370755Y-47104002D01*
X120370586Y-47110845D01*
X120370081Y-47117642D01*
X120369244Y-47124382D01*
X120368081Y-47131052D01*
X120366596Y-47137642D01*
X120364793Y-47144140D01*
X120362677Y-47150535D01*
X120360254Y-47156816D01*
X120357527Y-47162971D01*
X120354501Y-47168990D01*
X120351182Y-47174860D01*
X120347573Y-47180570D01*
X120343679Y-47186110D01*
X120339506Y-47191467D01*
X120335057Y-47196631D01*
X120330338Y-47201590D01*
X120325379Y-47206309D01*
X120320215Y-47210758D01*
X120314857Y-47214931D01*
X120309318Y-47218824D01*
X120303607Y-47222433D01*
X120297737Y-47225753D01*
X120291719Y-47228778D01*
X120285564Y-47231505D01*
X120279283Y-47233928D01*
X120272888Y-47236044D01*
X120266390Y-47237847D01*
X120259800Y-47239332D01*
X120253130Y-47240495D01*
X120246391Y-47241331D01*
X120239594Y-47241836D01*
X120232750Y-47242005D01*
X110195158Y-47242005D01*
X110123985Y-47243016D01*
X110054893Y-47246031D01*
X109987838Y-47251026D01*
X109922773Y-47257976D01*
X109859653Y-47266857D01*
X109798433Y-47277644D01*
X109739067Y-47290312D01*
X109681510Y-47304838D01*
X109625716Y-47321195D01*
X109571640Y-47339360D01*
X109519237Y-47359308D01*
X109468462Y-47381015D01*
X109419268Y-47404455D01*
X109371610Y-47429604D01*
X109325443Y-47456437D01*
X109280722Y-47484931D01*
X109237401Y-47515060D01*
X109195435Y-47546799D01*
X109154779Y-47580124D01*
X109115386Y-47615011D01*
X109077211Y-47651434D01*
X109040210Y-47689369D01*
X108969545Y-47769678D01*
X108903028Y-47855740D01*
X108840295Y-47947357D01*
X108780983Y-48044334D01*
X108724729Y-48146473D01*
X108671551Y-48253603D01*
X108621549Y-48365488D01*
X108574485Y-48481826D01*
X108530119Y-48602319D01*
X108488212Y-48726666D01*
X108448526Y-48854568D01*
X108374857Y-49119839D01*
X108307200Y-49395734D01*
X108243642Y-49679855D01*
X108121174Y-50263188D01*
X108058344Y-50557709D01*
X107991464Y-50851165D01*
X107918157Y-51141293D01*
X107878350Y-51284401D01*
X107836043Y-51425829D01*
X107790941Y-51565294D01*
X107742745Y-51702511D01*
X107691159Y-51837200D01*
X107635884Y-51969076D01*
X107576625Y-52097857D01*
X107513082Y-52223260D01*
X107444960Y-52345002D01*
X107371961Y-52462800D01*
X107293590Y-52576208D01*
X107209433Y-52684743D01*
X107119312Y-52788068D01*
X107023050Y-52885845D01*
X106920467Y-52977739D01*
X106811386Y-53063410D01*
X106695629Y-53142523D01*
X106573019Y-53214739D01*
X106443377Y-53279722D01*
X106306524Y-53337135D01*
X106162284Y-53386641D01*
X106010478Y-53427901D01*
X105850929Y-53460579D01*
X105683457Y-53484338D01*
X105507886Y-53498841D01*
X105324037Y-53503750D01*
X96478678Y-53503750D01*
X96471835Y-53503582D01*
X96465038Y-53503078D01*
X96458298Y-53502243D01*
X96451628Y-53501080D01*
X96445038Y-53499596D01*
X96438539Y-53497794D01*
X96432144Y-53495679D01*
X96425863Y-53493256D01*
X96419707Y-53490530D01*
X96413688Y-53487505D01*
X96407818Y-53484186D01*
X96402107Y-53480578D01*
X96396567Y-53476685D01*
X96391209Y-53472513D01*
X96386045Y-53468065D01*
X96381085Y-53463346D01*
X96376366Y-53458388D01*
X96371916Y-53453225D01*
X96367743Y-53447868D01*
X96363848Y-53442329D01*
X96360239Y-53436618D01*
X96356919Y-53430748D01*
X96353893Y-53424730D01*
X96351165Y-53418574D01*
X96348741Y-53412293D01*
X96346624Y-53405897D01*
X96344821Y-53399398D01*
X96343335Y-53392806D01*
X96342171Y-53386134D01*
X96341334Y-53379393D01*
X96340828Y-53372593D01*
X96340658Y-53365747D01*
X96340839Y-53358647D01*
X96341374Y-53351640D01*
X96342253Y-53344735D01*
X96343468Y-53337941D01*
X96345010Y-53331266D01*
X96346871Y-53324719D01*
X96349042Y-53318309D01*
X96351514Y-53312044D01*
X96354278Y-53305933D01*
X96357326Y-53299984D01*
X96360650Y-53294207D01*
X96364240Y-53288610D01*
X96368088Y-53283201D01*
X96372185Y-53277989D01*
X96376523Y-53272984D01*
X96381092Y-53268193D01*
X96385885Y-53263625D01*
X96390892Y-53259289D01*
X96396105Y-53255194D01*
X96401515Y-53251349D01*
X96407114Y-53247761D01*
X96412892Y-53244439D01*
X96418842Y-53241393D01*
X96424954Y-53238631D01*
X96431220Y-53236162D01*
X96437631Y-53233993D01*
X96444179Y-53232135D01*
X96450855Y-53230595D01*
X96457649Y-53229383D01*
X96464554Y-53228506D01*
X96471561Y-53227974D01*
X96478661Y-53227796D01*
X105324037Y-53227796D01*
X105409896Y-53226749D01*
X105493436Y-53223628D01*
X105574702Y-53218463D01*
X105653737Y-53211282D01*
X105730586Y-53202116D01*
X105805294Y-53190994D01*
X105877904Y-53177946D01*
X105948460Y-53163000D01*
X106017008Y-53146188D01*
X106083591Y-53127537D01*
X106148253Y-53107078D01*
X106211039Y-53084839D01*
X106271993Y-53060852D01*
X106331159Y-53035144D01*
X106388581Y-53007746D01*
X106444304Y-52978688D01*
X106498373Y-52947998D01*
X106550830Y-52915706D01*
X106601721Y-52881841D01*
X106651090Y-52846434D01*
X106698981Y-52809514D01*
X106745438Y-52771110D01*
X106790505Y-52731251D01*
X106834228Y-52689968D01*
X106876649Y-52647289D01*
X106917814Y-52603245D01*
X106996550Y-52511177D01*
X107070790Y-52414000D01*
X107140889Y-52311950D01*
X107206963Y-52205119D01*
X107269049Y-52093631D01*
X107327384Y-51977779D01*
X107382201Y-51857852D01*
X107433735Y-51734141D01*
X107482220Y-51606936D01*
X107527892Y-51476528D01*
X107570984Y-51343206D01*
X107650371Y-51068986D01*
X107722258Y-50786598D01*
X107788521Y-50498366D01*
X107851039Y-50206613D01*
X107972906Y-49621984D01*
X108036846Y-49333590D01*
X108105915Y-49050728D01*
X108182456Y-48775586D01*
X108224260Y-48641595D01*
X108268812Y-48510355D01*
X108316402Y-48382140D01*
X108367325Y-48257223D01*
X108421873Y-48135878D01*
X108480340Y-48018379D01*
X108543356Y-47905060D01*
X108611473Y-47796325D01*
X108684859Y-47692550D01*
X108763684Y-47594111D01*
X108848115Y-47501385D01*
X108938321Y-47414747D01*
X109034471Y-47334575D01*
X109136735Y-47261244D01*
X109245280Y-47195132D01*
X109360276Y-47136613D01*
X109481890Y-47086065D01*
X109610293Y-47043863D01*
X109745652Y-47010385D01*
X109888137Y-46986006D01*
X110037916Y-46971102D01*
X110195158Y-46966051D01*
X120232787Y-46966051D01*
X120239887Y-46966231D01*
G37*
G36*
X96685369Y-54943757D02*
G01*
X96716161Y-54944087D01*
X96745922Y-54945078D01*
X96774651Y-54946730D01*
X96802349Y-54949042D01*
X96829014Y-54952015D01*
X96854647Y-54955648D01*
X96879249Y-54959943D01*
X96902818Y-54964898D01*
X96925356Y-54970513D01*
X96946862Y-54976789D01*
X96967336Y-54983726D01*
X96986778Y-54991324D01*
X97005188Y-54999582D01*
X97022567Y-55008501D01*
X97038913Y-55018081D01*
X97054228Y-55028321D01*
X97062428Y-55034329D01*
X97070370Y-55040575D01*
X97078051Y-55047058D01*
X97085473Y-55053779D01*
X97092635Y-55060737D01*
X97099537Y-55067934D01*
X97106180Y-55075368D01*
X97112563Y-55083040D01*
X97118685Y-55090950D01*
X97124548Y-55099098D01*
X97130150Y-55107484D01*
X97135493Y-55116108D01*
X97140575Y-55124970D01*
X97145398Y-55134070D01*
X97149960Y-55143409D01*
X97154261Y-55152985D01*
X97162084Y-55172854D01*
X97168864Y-55193676D01*
X97174603Y-55215452D01*
X97179299Y-55238182D01*
X97182952Y-55261868D01*
X97185562Y-55286508D01*
X97187128Y-55312104D01*
X97187651Y-55338656D01*
X97187399Y-55356752D01*
X97186643Y-55374394D01*
X97185384Y-55391584D01*
X97183620Y-55408321D01*
X97181350Y-55424604D01*
X97178576Y-55440435D01*
X97175296Y-55455812D01*
X97171510Y-55470737D01*
X97167217Y-55485208D01*
X97162417Y-55499227D01*
X97157110Y-55512792D01*
X97151296Y-55525904D01*
X97144973Y-55538564D01*
X97138142Y-55550770D01*
X97130802Y-55562523D01*
X97122953Y-55573824D01*
X97113540Y-55585996D01*
X97103523Y-55597645D01*
X97092901Y-55608771D01*
X97081673Y-55619374D01*
X97069840Y-55629452D01*
X97057402Y-55639007D01*
X97044356Y-55648037D01*
X97030704Y-55656542D01*
X97016445Y-55664522D01*
X97001578Y-55671976D01*
X96986104Y-55678903D01*
X96970021Y-55685304D01*
X96953329Y-55691179D01*
X96936028Y-55696525D01*
X96918117Y-55701345D01*
X96899597Y-55705636D01*
X97250030Y-56256241D01*
X96920536Y-56256241D01*
X96599463Y-55741071D01*
X96237315Y-55741071D01*
X96237315Y-56256241D01*
X95941208Y-56256241D01*
X95941208Y-55513421D01*
X96239463Y-55513421D01*
X96612080Y-55513421D01*
X96647114Y-55513094D01*
X96679127Y-55512116D01*
X96708120Y-55510490D01*
X96734094Y-55508220D01*
X96757047Y-55505307D01*
X96776979Y-55501756D01*
X96785813Y-55499742D01*
X96793892Y-55497569D01*
X96801216Y-55495239D01*
X96807785Y-55492751D01*
X96812789Y-55490556D01*
X96817635Y-55488198D01*
X96822322Y-55485679D01*
X96826849Y-55482998D01*
X96831218Y-55480155D01*
X96835428Y-55477149D01*
X96839480Y-55473982D01*
X96843372Y-55470653D01*
X96847106Y-55467162D01*
X96850680Y-55463508D01*
X96854096Y-55459693D01*
X96857353Y-55455716D01*
X96860451Y-55451576D01*
X96863390Y-55447275D01*
X96866170Y-55442812D01*
X96868792Y-55438186D01*
X96871254Y-55433399D01*
X96873558Y-55428450D01*
X96875702Y-55423338D01*
X96877688Y-55418065D01*
X96879515Y-55412629D01*
X96881184Y-55407032D01*
X96882693Y-55401272D01*
X96884043Y-55395351D01*
X96885235Y-55389267D01*
X96886267Y-55383022D01*
X96887141Y-55376614D01*
X96887856Y-55370044D01*
X96888412Y-55363313D01*
X96888809Y-55356419D01*
X96889127Y-55342146D01*
X96889396Y-55342146D01*
X96889134Y-55330399D01*
X96888352Y-55319118D01*
X96887047Y-55308305D01*
X96885222Y-55297959D01*
X96882876Y-55288083D01*
X96880010Y-55278676D01*
X96876623Y-55269739D01*
X96872718Y-55261273D01*
X96868293Y-55253279D01*
X96863349Y-55245758D01*
X96857888Y-55238711D01*
X96851908Y-55232137D01*
X96845411Y-55226039D01*
X96838397Y-55220417D01*
X96830866Y-55215271D01*
X96822818Y-55210602D01*
X96814202Y-55206311D01*
X96804962Y-55202297D01*
X96795099Y-55198559D01*
X96784614Y-55195099D01*
X96773505Y-55191915D01*
X96761774Y-55189008D01*
X96749420Y-55186378D01*
X96736443Y-55184025D01*
X96722842Y-55181948D01*
X96708620Y-55180149D01*
X96693774Y-55178626D01*
X96678305Y-55177380D01*
X96662213Y-55176412D01*
X96645499Y-55175719D01*
X96628161Y-55175304D01*
X96610201Y-55175166D01*
X96239463Y-55175166D01*
X96239463Y-55513421D01*
X95941208Y-55513421D01*
X95941208Y-54943757D01*
X96685369Y-54943757D01*
G37*
G36*
X107171006Y-55489260D02*
G01*
X106804027Y-55489260D01*
X106769333Y-55489877D01*
X106752996Y-55490648D01*
X106737332Y-55491727D01*
X106722342Y-55493114D01*
X106708024Y-55494810D01*
X106694380Y-55496814D01*
X106681409Y-55499126D01*
X106669112Y-55501747D01*
X106657487Y-55504676D01*
X106646536Y-55507913D01*
X106636258Y-55511459D01*
X106626653Y-55515313D01*
X106617722Y-55519475D01*
X106609464Y-55523945D01*
X106601879Y-55528724D01*
X106598286Y-55531382D01*
X106594807Y-55534170D01*
X106591441Y-55537089D01*
X106588188Y-55540138D01*
X106585049Y-55543319D01*
X106582023Y-55546630D01*
X106579111Y-55550072D01*
X106576312Y-55553645D01*
X106573628Y-55557348D01*
X106571056Y-55561183D01*
X106568599Y-55565149D01*
X106566255Y-55569246D01*
X106564026Y-55573474D01*
X106561910Y-55577833D01*
X106559908Y-55582324D01*
X106558020Y-55586946D01*
X106554586Y-55596584D01*
X106551609Y-55606747D01*
X106549089Y-55617437D01*
X106547026Y-55628653D01*
X106545421Y-55640396D01*
X106544274Y-55652666D01*
X106543585Y-55665465D01*
X106543355Y-55678791D01*
X107170738Y-55678791D01*
X107170738Y-55876107D01*
X106539060Y-55876107D01*
X106539271Y-55889046D01*
X106539903Y-55901487D01*
X106540957Y-55913430D01*
X106542433Y-55924874D01*
X106544330Y-55935817D01*
X106546648Y-55946259D01*
X106549388Y-55956199D01*
X106552550Y-55965637D01*
X106556133Y-55974571D01*
X106560138Y-55983002D01*
X106564564Y-55990927D01*
X106569412Y-55998346D01*
X106574682Y-56005259D01*
X106580373Y-56011665D01*
X106586486Y-56017563D01*
X106593020Y-56022952D01*
X106599969Y-56027973D01*
X106607730Y-56032667D01*
X106616303Y-56037035D01*
X106625688Y-56041077D01*
X106635884Y-56044793D01*
X106646892Y-56048185D01*
X106658711Y-56051251D01*
X106671342Y-56053993D01*
X106684785Y-56056410D01*
X106699039Y-56058504D01*
X106714105Y-56060275D01*
X106729983Y-56061723D01*
X106746673Y-56062849D01*
X106764174Y-56063652D01*
X106782486Y-56064134D01*
X106801610Y-56064295D01*
X107170469Y-56064295D01*
X107170469Y-56256241D01*
X106766442Y-56256241D01*
X106734362Y-56255734D01*
X106703259Y-56254215D01*
X106673131Y-56251682D01*
X106643980Y-56248136D01*
X106615805Y-56243578D01*
X106588608Y-56238006D01*
X106562388Y-56231422D01*
X106537147Y-56223824D01*
X106512884Y-56215214D01*
X106489599Y-56205590D01*
X106467294Y-56194954D01*
X106445968Y-56183304D01*
X106425623Y-56170642D01*
X106406257Y-56156966D01*
X106387873Y-56142278D01*
X106370470Y-56126576D01*
X106354085Y-56110006D01*
X106338758Y-56092713D01*
X106324488Y-56074696D01*
X106311275Y-56055955D01*
X106299119Y-56036491D01*
X106288020Y-56016304D01*
X106277978Y-55995392D01*
X106268993Y-55973757D01*
X106261065Y-55951399D01*
X106254194Y-55928317D01*
X106248380Y-55904511D01*
X106243624Y-55879982D01*
X106239924Y-55854730D01*
X106237281Y-55828753D01*
X106235696Y-55802054D01*
X106235167Y-55774630D01*
X106235925Y-55739603D01*
X106238199Y-55705896D01*
X106241989Y-55673510D01*
X106247294Y-55642445D01*
X106254113Y-55612699D01*
X106262447Y-55584272D01*
X106272295Y-55557164D01*
X106283657Y-55531375D01*
X106296532Y-55506904D01*
X106310920Y-55483751D01*
X106326820Y-55461915D01*
X106344232Y-55441396D01*
X106363156Y-55422194D01*
X106383591Y-55404307D01*
X106405536Y-55387737D01*
X106428993Y-55372482D01*
X106445223Y-55363123D01*
X106462101Y-55354373D01*
X106479627Y-55346232D01*
X106497801Y-55338699D01*
X106516624Y-55331773D01*
X106536094Y-55325453D01*
X106556213Y-55319739D01*
X106576979Y-55314630D01*
X106598394Y-55310125D01*
X106620456Y-55306223D01*
X106643167Y-55302924D01*
X106666526Y-55300226D01*
X106690533Y-55298129D01*
X106715188Y-55296632D01*
X106740491Y-55295735D01*
X106766442Y-55295436D01*
X107171006Y-55295436D01*
X107171006Y-55489260D01*
G37*
G36*
X104274093Y-55488990D02*
G01*
X103736107Y-55488990D01*
X103717920Y-55489321D01*
X103700909Y-55490312D01*
X103685075Y-55491963D01*
X103670415Y-55494276D01*
X103656930Y-55497249D01*
X103644621Y-55500882D01*
X103633485Y-55505176D01*
X103623523Y-55510131D01*
X103614735Y-55515747D01*
X103610781Y-55518803D01*
X103607120Y-55522023D01*
X103603752Y-55525409D01*
X103600677Y-55528960D01*
X103597895Y-55532676D01*
X103595407Y-55536558D01*
X103593211Y-55540604D01*
X103591308Y-55544816D01*
X103589698Y-55549193D01*
X103588381Y-55553735D01*
X103587357Y-55558442D01*
X103586625Y-55563314D01*
X103586186Y-55568352D01*
X103586040Y-55573555D01*
X103586518Y-55575808D01*
X103586942Y-55577943D01*
X103587309Y-55579963D01*
X103587617Y-55581877D01*
X103587862Y-55583690D01*
X103588040Y-55585409D01*
X103588150Y-55587040D01*
X103588187Y-55588588D01*
X103588807Y-55593791D01*
X103589660Y-55598828D01*
X103590745Y-55603701D01*
X103592063Y-55608408D01*
X103593614Y-55612950D01*
X103595398Y-55617327D01*
X103597414Y-55621538D01*
X103599664Y-55625585D01*
X103602146Y-55629466D01*
X103604861Y-55633182D01*
X103607809Y-55636733D01*
X103610989Y-55640119D01*
X103614403Y-55643340D01*
X103618049Y-55646395D01*
X103621928Y-55649286D01*
X103626040Y-55652011D01*
X103630384Y-55654571D01*
X103634962Y-55656966D01*
X103639772Y-55659195D01*
X103644815Y-55661260D01*
X103650091Y-55663159D01*
X103655599Y-55664894D01*
X103661341Y-55666463D01*
X103667315Y-55667866D01*
X103673522Y-55669105D01*
X103679962Y-55670179D01*
X103686634Y-55671087D01*
X103693540Y-55671830D01*
X103700678Y-55672408D01*
X103708049Y-55672821D01*
X103715653Y-55673069D01*
X103723489Y-55673152D01*
X103979865Y-55673152D01*
X103999112Y-55673344D01*
X104017792Y-55673919D01*
X104035905Y-55674879D01*
X104053451Y-55676222D01*
X104070429Y-55677949D01*
X104086839Y-55680060D01*
X104102680Y-55682555D01*
X104117952Y-55685433D01*
X104132655Y-55688696D01*
X104146787Y-55692342D01*
X104160350Y-55696372D01*
X104173342Y-55700785D01*
X104185763Y-55705583D01*
X104197613Y-55710764D01*
X104208891Y-55716329D01*
X104219596Y-55722278D01*
X104226385Y-55726466D01*
X104232957Y-55730823D01*
X104239315Y-55735350D01*
X104245456Y-55740046D01*
X104251382Y-55744913D01*
X104257093Y-55749949D01*
X104262588Y-55755154D01*
X104267868Y-55760530D01*
X104272932Y-55766074D01*
X104277781Y-55771788D01*
X104282414Y-55777672D01*
X104286832Y-55783724D01*
X104291034Y-55789946D01*
X104295021Y-55796338D01*
X104298792Y-55802898D01*
X104302348Y-55809628D01*
X104305688Y-55816527D01*
X104308813Y-55823594D01*
X104311722Y-55830831D01*
X104314416Y-55838237D01*
X104316894Y-55845811D01*
X104319157Y-55853555D01*
X104321204Y-55861467D01*
X104323036Y-55869548D01*
X104324652Y-55877798D01*
X104326053Y-55886216D01*
X104327238Y-55894803D01*
X104328208Y-55903559D01*
X104329501Y-55921575D01*
X104329932Y-55940265D01*
X104329664Y-55940266D01*
X104329371Y-55958104D01*
X104328493Y-55975475D01*
X104327031Y-55992379D01*
X104324983Y-56008815D01*
X104322349Y-56024782D01*
X104319131Y-56040280D01*
X104315328Y-56055307D01*
X104310939Y-56069863D01*
X104305965Y-56083948D01*
X104300406Y-56097560D01*
X104294262Y-56110698D01*
X104287533Y-56123362D01*
X104280218Y-56135551D01*
X104272319Y-56147264D01*
X104263834Y-56158501D01*
X104254764Y-56169260D01*
X104244873Y-56179789D01*
X104234528Y-56189634D01*
X104223730Y-56198794D01*
X104212478Y-56207271D01*
X104200771Y-56215065D01*
X104188609Y-56222178D01*
X104175991Y-56228609D01*
X104162918Y-56234360D01*
X104149389Y-56239431D01*
X104135403Y-56243824D01*
X104120960Y-56247539D01*
X104106060Y-56250576D01*
X104090702Y-56252938D01*
X104074886Y-56254623D01*
X104058612Y-56255634D01*
X104041878Y-56255971D01*
X103326979Y-56255971D01*
X103326979Y-56064026D01*
X103912751Y-56064026D01*
X103931183Y-56063629D01*
X103948426Y-56062440D01*
X103964480Y-56060458D01*
X103979345Y-56057683D01*
X103993020Y-56054116D01*
X104005507Y-56049755D01*
X104016804Y-56044602D01*
X104022007Y-56041728D01*
X104026912Y-56038656D01*
X104031520Y-56035386D01*
X104035831Y-56031918D01*
X104039844Y-56028251D01*
X104043560Y-56024386D01*
X104046979Y-56020323D01*
X104050101Y-56016062D01*
X104052925Y-56011602D01*
X104055452Y-56006945D01*
X104057682Y-56002089D01*
X104059614Y-55997035D01*
X104061250Y-55991783D01*
X104062587Y-55986332D01*
X104063628Y-55980684D01*
X104064371Y-55974837D01*
X104064817Y-55968792D01*
X104064966Y-55962549D01*
X104064817Y-55956317D01*
X104064371Y-55950303D01*
X104063628Y-55944507D01*
X104062587Y-55938927D01*
X104061250Y-55933562D01*
X104059614Y-55928410D01*
X104057682Y-55923470D01*
X104055452Y-55918740D01*
X104052925Y-55914220D01*
X104050101Y-55909907D01*
X104046979Y-55905801D01*
X104043560Y-55901901D01*
X104039844Y-55898203D01*
X104035831Y-55894709D01*
X104031520Y-55891415D01*
X104026912Y-55888320D01*
X104022007Y-55885424D01*
X104016804Y-55882725D01*
X104011304Y-55880221D01*
X104005507Y-55877911D01*
X103999412Y-55875794D01*
X103993020Y-55873868D01*
X103986331Y-55872132D01*
X103979345Y-55870585D01*
X103972061Y-55869225D01*
X103964480Y-55868050D01*
X103956602Y-55867061D01*
X103948426Y-55866254D01*
X103939953Y-55865629D01*
X103931183Y-55865184D01*
X103912751Y-55864830D01*
X103668993Y-55864830D01*
X103651921Y-55865690D01*
X103636510Y-55866273D01*
X103622709Y-55866605D01*
X103610469Y-55866709D01*
X103595281Y-55866555D01*
X103580520Y-55866093D01*
X103566187Y-55865322D01*
X103552282Y-55864243D01*
X103538804Y-55862856D01*
X103525755Y-55861160D01*
X103513133Y-55859156D01*
X103500939Y-55856844D01*
X103489173Y-55854223D01*
X103477835Y-55851294D01*
X103466925Y-55848057D01*
X103456443Y-55844512D01*
X103446388Y-55840658D01*
X103436761Y-55836496D01*
X103427562Y-55832025D01*
X103418791Y-55827246D01*
X103412003Y-55823148D01*
X103405430Y-55818856D01*
X103399073Y-55814370D01*
X103392931Y-55809691D01*
X103387005Y-55804817D01*
X103381295Y-55799750D01*
X103375799Y-55794489D01*
X103370520Y-55789033D01*
X103365455Y-55783384D01*
X103360607Y-55777539D01*
X103355973Y-55771501D01*
X103351556Y-55765268D01*
X103347353Y-55758840D01*
X103343367Y-55752217D01*
X103339595Y-55745400D01*
X103336040Y-55738387D01*
X103332700Y-55731180D01*
X103329575Y-55723777D01*
X103326666Y-55716180D01*
X103323972Y-55708386D01*
X103321494Y-55700398D01*
X103319231Y-55692214D01*
X103317184Y-55683834D01*
X103315352Y-55675258D01*
X103313736Y-55666487D01*
X103312335Y-55657520D01*
X103310180Y-55638997D01*
X103308887Y-55619689D01*
X103308456Y-55599596D01*
X103308816Y-55580866D01*
X103309897Y-55562731D01*
X103311698Y-55545191D01*
X103314220Y-55528245D01*
X103317462Y-55511894D01*
X103321425Y-55496137D01*
X103326109Y-55480975D01*
X103331514Y-55466408D01*
X103337639Y-55452435D01*
X103344486Y-55439056D01*
X103352053Y-55426273D01*
X103360341Y-55414084D01*
X103369350Y-55402489D01*
X103379080Y-55391489D01*
X103389532Y-55381084D01*
X103400704Y-55371273D01*
X103412598Y-55362057D01*
X103425213Y-55353435D01*
X103438549Y-55345409D01*
X103452607Y-55337976D01*
X103467386Y-55331138D01*
X103482887Y-55324895D01*
X103499109Y-55319247D01*
X103516052Y-55314193D01*
X103533718Y-55309733D01*
X103552105Y-55305868D01*
X103571213Y-55302598D01*
X103591044Y-55299922D01*
X103611596Y-55297841D01*
X103632870Y-55296355D01*
X103654866Y-55295463D01*
X103677584Y-55295166D01*
X104274093Y-55295166D01*
X104274093Y-55488990D01*
G37*
G36*
X110727785Y-53940266D02*
G01*
X109620134Y-53940266D01*
X109620134Y-48774629D01*
X110727785Y-48774629D01*
X110727785Y-53940266D01*
G37*
G36*
X118505992Y-55935547D02*
G01*
X118507944Y-55917339D01*
X118510677Y-55899839D01*
X118514192Y-55883048D01*
X118518489Y-55866963D01*
X118523569Y-55851584D01*
X118529431Y-55836911D01*
X118536077Y-55822943D01*
X118543506Y-55809679D01*
X118551720Y-55797118D01*
X118560718Y-55785259D01*
X118570501Y-55774101D01*
X118581069Y-55763645D01*
X118592423Y-55753888D01*
X118604563Y-55744831D01*
X118617559Y-55736636D01*
X118631481Y-55728964D01*
X118646327Y-55721815D01*
X118662097Y-55715192D01*
X118678793Y-55709093D01*
X118696414Y-55703521D01*
X118714959Y-55698476D01*
X118734430Y-55693958D01*
X118754825Y-55689969D01*
X118776145Y-55686510D01*
X118798390Y-55683580D01*
X118821560Y-55681181D01*
X118845655Y-55679314D01*
X118870675Y-55677980D01*
X118896619Y-55677178D01*
X118923489Y-55676911D01*
X119294228Y-55676911D01*
X119294024Y-55663591D01*
X119293410Y-55650812D01*
X119292388Y-55638572D01*
X119290956Y-55626873D01*
X119289116Y-55615714D01*
X119286867Y-55605093D01*
X119284209Y-55595011D01*
X119281141Y-55585468D01*
X119277665Y-55576463D01*
X119273780Y-55567995D01*
X119269486Y-55560064D01*
X119264782Y-55552670D01*
X119259670Y-55545813D01*
X119254149Y-55539491D01*
X119248218Y-55533705D01*
X119241879Y-55528454D01*
X119235002Y-55523676D01*
X119227358Y-55519205D01*
X119218947Y-55515043D01*
X119209770Y-55511190D01*
X119199826Y-55507644D01*
X119189117Y-55504407D01*
X119177642Y-55501478D01*
X119165403Y-55498857D01*
X119152399Y-55496545D01*
X119138631Y-55494541D01*
X119124100Y-55492845D01*
X119108805Y-55491458D01*
X119092747Y-55490379D01*
X119075926Y-55489608D01*
X119058344Y-55489146D01*
X119039999Y-55488991D01*
X118575570Y-55488991D01*
X118575570Y-55295167D01*
X119144429Y-55295167D01*
X119185931Y-55295846D01*
X119224869Y-55297881D01*
X119261247Y-55301268D01*
X119278476Y-55303468D01*
X119295066Y-55306006D01*
X119311018Y-55308879D01*
X119326332Y-55312089D01*
X119341007Y-55315635D01*
X119355045Y-55319516D01*
X119368447Y-55323732D01*
X119381211Y-55328283D01*
X119393339Y-55333168D01*
X119404831Y-55338387D01*
X119415337Y-55343694D01*
X119425510Y-55349294D01*
X119435351Y-55355189D01*
X119444860Y-55361379D01*
X119454036Y-55367862D01*
X119462880Y-55374640D01*
X119471392Y-55381712D01*
X119479571Y-55389079D01*
X119487418Y-55396741D01*
X119494931Y-55404697D01*
X119502112Y-55412948D01*
X119508960Y-55421493D01*
X119515475Y-55430333D01*
X119521656Y-55439468D01*
X119527504Y-55448898D01*
X119533019Y-55458622D01*
X119538201Y-55468642D01*
X119543049Y-55478956D01*
X119547563Y-55489566D01*
X119551743Y-55500471D01*
X119555590Y-55511670D01*
X119559102Y-55523165D01*
X119562281Y-55534955D01*
X119565125Y-55547041D01*
X119567635Y-55559422D01*
X119569811Y-55572098D01*
X119571652Y-55585069D01*
X119573159Y-55598336D01*
X119574331Y-55611899D01*
X119575169Y-55625757D01*
X119575839Y-55654360D01*
X119575839Y-56256241D01*
X118829531Y-56256241D01*
X118810523Y-56255945D01*
X118792055Y-56255059D01*
X118774127Y-56253582D01*
X118756737Y-56251517D01*
X118739886Y-56248864D01*
X118723571Y-56245623D01*
X118707793Y-56241795D01*
X118692551Y-56237381D01*
X118677844Y-56232382D01*
X118663670Y-56226799D01*
X118650030Y-56220632D01*
X118636922Y-56213882D01*
X118624346Y-56206551D01*
X118612301Y-56198638D01*
X118600786Y-56190145D01*
X118589800Y-56181072D01*
X118579463Y-56171439D01*
X118569792Y-56161366D01*
X118560788Y-56150852D01*
X118552451Y-56139898D01*
X118544781Y-56128503D01*
X118537778Y-56116668D01*
X118531442Y-56104393D01*
X118525773Y-56091677D01*
X118520771Y-56078520D01*
X118516436Y-56064923D01*
X118512768Y-56050886D01*
X118509767Y-56036408D01*
X118507432Y-56021490D01*
X118505765Y-56006132D01*
X118504765Y-55990333D01*
X118504431Y-55974093D01*
X118504581Y-55966574D01*
X118792216Y-55966574D01*
X118792370Y-55973301D01*
X118792832Y-55979788D01*
X118793603Y-55986038D01*
X118794682Y-55992049D01*
X118796069Y-55997823D01*
X118797765Y-56003359D01*
X118799769Y-56008659D01*
X118802081Y-56013723D01*
X118804701Y-56018551D01*
X118807630Y-56023143D01*
X118810867Y-56027499D01*
X118814412Y-56031622D01*
X118818266Y-56035509D01*
X118822428Y-56039163D01*
X118826898Y-56042583D01*
X118831677Y-56045770D01*
X118836742Y-56048743D01*
X118842071Y-56051522D01*
X118847665Y-56054106D01*
X118853523Y-56056496D01*
X118859645Y-56058693D01*
X118866031Y-56060696D01*
X118872682Y-56062508D01*
X118879597Y-56064126D01*
X118886776Y-56065553D01*
X118894219Y-56066788D01*
X118901927Y-56067833D01*
X118909899Y-56068686D01*
X118918135Y-56069349D01*
X118926635Y-56069823D01*
X118935399Y-56070106D01*
X118944428Y-56070201D01*
X119296645Y-56070201D01*
X119296510Y-56070065D01*
X119296378Y-56069931D01*
X119296378Y-55861072D01*
X118965102Y-55861072D01*
X118944528Y-55861299D01*
X118925496Y-55861982D01*
X118908011Y-55863125D01*
X118892081Y-55864730D01*
X118877711Y-55866800D01*
X118864908Y-55869339D01*
X118859096Y-55870786D01*
X118853678Y-55872351D01*
X118848655Y-55874034D01*
X118844027Y-55875837D01*
X118840831Y-55877316D01*
X118837738Y-55878882D01*
X118834747Y-55880537D01*
X118831858Y-55882280D01*
X118829071Y-55884110D01*
X118826386Y-55886028D01*
X118823802Y-55888035D01*
X118821321Y-55890128D01*
X118818942Y-55892310D01*
X118816664Y-55894579D01*
X118814489Y-55896936D01*
X118812415Y-55899380D01*
X118810442Y-55901912D01*
X118808571Y-55904531D01*
X118806802Y-55907238D01*
X118805135Y-55910032D01*
X118803568Y-55912913D01*
X118802103Y-55915882D01*
X118800740Y-55918937D01*
X118799478Y-55922080D01*
X118798317Y-55925310D01*
X118797257Y-55928627D01*
X118796299Y-55932031D01*
X118795441Y-55935522D01*
X118794685Y-55939100D01*
X118794030Y-55942765D01*
X118793475Y-55946516D01*
X118793022Y-55950355D01*
X118792669Y-55954280D01*
X118792417Y-55958291D01*
X118792216Y-55966574D01*
X118504581Y-55966574D01*
X118504821Y-55954465D01*
X118505992Y-55935547D01*
G37*
G36*
X111513010Y-52677528D02*
G01*
X111520716Y-52605893D01*
X111531504Y-52537036D01*
X111545374Y-52470957D01*
X111562325Y-52407656D01*
X111582357Y-52347135D01*
X111605468Y-52289394D01*
X111631660Y-52234434D01*
X111660931Y-52182255D01*
X111693282Y-52132860D01*
X111728711Y-52086248D01*
X111767218Y-52042420D01*
X111808804Y-52001377D01*
X111853466Y-51963119D01*
X111901206Y-51927649D01*
X111952309Y-51895270D01*
X112007061Y-51864981D01*
X112065460Y-51836780D01*
X112127507Y-51810669D01*
X112193199Y-51786646D01*
X112262537Y-51764712D01*
X112335520Y-51744867D01*
X112412146Y-51727111D01*
X112492415Y-51711444D01*
X112576327Y-51697866D01*
X112663880Y-51686377D01*
X112755074Y-51676977D01*
X112849908Y-51669666D01*
X112948381Y-51664443D01*
X113050492Y-51661310D01*
X113156241Y-51660266D01*
X114615300Y-51660266D01*
X114614494Y-51607822D01*
X114612078Y-51557506D01*
X114608051Y-51509317D01*
X114602414Y-51463256D01*
X114595165Y-51419324D01*
X114586306Y-51377520D01*
X114575836Y-51337845D01*
X114563756Y-51300299D01*
X114550064Y-51264883D01*
X114534762Y-51231598D01*
X114517850Y-51200443D01*
X114499326Y-51171419D01*
X114479192Y-51144527D01*
X114457447Y-51119766D01*
X114434091Y-51097137D01*
X114409125Y-51076641D01*
X114382095Y-51057819D01*
X114352045Y-51040211D01*
X114318976Y-51023817D01*
X114282888Y-51008638D01*
X114243781Y-50994673D01*
X114201656Y-50981922D01*
X114156514Y-50970386D01*
X114108354Y-50960064D01*
X114057177Y-50950957D01*
X114002983Y-50943063D01*
X113945773Y-50936385D01*
X113885547Y-50930920D01*
X113822306Y-50926670D01*
X113756050Y-50923634D01*
X113686780Y-50921812D01*
X113614495Y-50921205D01*
X111786844Y-50921205D01*
X111786844Y-50158789D01*
X114025233Y-50158789D01*
X114188435Y-50161445D01*
X114341601Y-50169410D01*
X114484737Y-50182686D01*
X114552547Y-50191315D01*
X114617851Y-50201272D01*
X114680651Y-50212557D01*
X114740948Y-50225169D01*
X114798742Y-50239109D01*
X114854034Y-50254377D01*
X114906825Y-50270972D01*
X114957116Y-50288894D01*
X115004907Y-50308144D01*
X115050200Y-50328722D01*
X115091598Y-50349636D01*
X115131681Y-50371706D01*
X115170448Y-50394932D01*
X115207901Y-50419314D01*
X115244040Y-50444853D01*
X115278863Y-50471548D01*
X115312372Y-50499400D01*
X115344566Y-50528408D01*
X115375445Y-50558572D01*
X115405010Y-50589893D01*
X115433261Y-50622371D01*
X115460196Y-50656006D01*
X115485818Y-50690797D01*
X115510125Y-50726745D01*
X115533118Y-50763850D01*
X115554796Y-50802111D01*
X115575160Y-50841530D01*
X115594211Y-50882106D01*
X115611947Y-50923838D01*
X115628368Y-50966728D01*
X115643476Y-51010775D01*
X115657270Y-51055979D01*
X115669750Y-51102340D01*
X115680916Y-51149859D01*
X115690768Y-51198535D01*
X115699307Y-51248368D01*
X115706531Y-51299359D01*
X115712442Y-51351507D01*
X115717040Y-51404812D01*
X115720323Y-51459276D01*
X115722950Y-51571675D01*
X115722950Y-53940534D01*
X115722683Y-53940266D01*
X112786040Y-53940266D01*
X112711288Y-53939109D01*
X112638645Y-53935635D01*
X112568111Y-53929847D01*
X112499685Y-53921743D01*
X112433369Y-53911323D01*
X112369162Y-53898589D01*
X112307066Y-53883538D01*
X112247080Y-53866172D01*
X112189205Y-53846491D01*
X112133441Y-53824495D01*
X112079790Y-53800183D01*
X112028250Y-53773555D01*
X111978823Y-53744612D01*
X111931508Y-53713354D01*
X111886307Y-53679780D01*
X111843220Y-53643891D01*
X111802502Y-53605975D01*
X111764408Y-53566324D01*
X111728939Y-53524937D01*
X111696094Y-53481814D01*
X111665874Y-53436956D01*
X111638281Y-53390364D01*
X111613313Y-53342038D01*
X111590972Y-53291977D01*
X111571258Y-53240184D01*
X111554171Y-53186657D01*
X111539712Y-53131398D01*
X111527880Y-53074406D01*
X111518678Y-53015682D01*
X111512104Y-52955227D01*
X111508159Y-52893041D01*
X111506844Y-52829125D01*
X111507439Y-52799327D01*
X112638388Y-52799327D01*
X112638995Y-52825790D01*
X112640816Y-52851323D01*
X112643851Y-52875923D01*
X112648099Y-52899591D01*
X112653559Y-52922326D01*
X112660232Y-52944128D01*
X112668117Y-52964996D01*
X112677213Y-52984931D01*
X112687521Y-53003931D01*
X112699040Y-53021996D01*
X112711769Y-53039126D01*
X112725708Y-53055321D01*
X112740856Y-53070579D01*
X112757214Y-53084902D01*
X112774781Y-53098287D01*
X112793557Y-53110736D01*
X112813502Y-53122342D01*
X112834481Y-53133198D01*
X112856494Y-53143306D01*
X112879542Y-53152666D01*
X112903627Y-53161276D01*
X112928750Y-53169138D01*
X112954912Y-53176251D01*
X112982114Y-53182616D01*
X113010357Y-53188231D01*
X113039643Y-53193098D01*
X113069972Y-53197216D01*
X113101346Y-53200586D01*
X113133767Y-53203206D01*
X113167235Y-53205078D01*
X113201751Y-53206201D01*
X113237317Y-53206576D01*
X114623356Y-53206576D01*
X114623085Y-53206575D01*
X114623085Y-52384562D01*
X113319193Y-52384562D01*
X113238114Y-52385468D01*
X113163195Y-52388186D01*
X113094429Y-52392716D01*
X113031811Y-52399058D01*
X112975333Y-52407213D01*
X112924990Y-52417179D01*
X112902117Y-52422842D01*
X112880775Y-52428958D01*
X112860964Y-52435526D01*
X112842682Y-52442548D01*
X112830121Y-52448382D01*
X112817958Y-52454559D01*
X112806193Y-52461079D01*
X112794827Y-52467942D01*
X112783858Y-52475148D01*
X112773288Y-52482697D01*
X112763115Y-52490589D01*
X112753341Y-52498823D01*
X112743966Y-52507401D01*
X112734989Y-52516321D01*
X112726410Y-52525584D01*
X112718230Y-52535191D01*
X112710448Y-52545140D01*
X112703065Y-52555432D01*
X112696081Y-52566067D01*
X112689495Y-52577045D01*
X112683308Y-52588365D01*
X112677520Y-52600029D01*
X112672131Y-52612036D01*
X112667141Y-52624385D01*
X112662549Y-52637078D01*
X112658357Y-52650113D01*
X112654563Y-52663491D01*
X112651169Y-52677212D01*
X112648174Y-52691277D01*
X112645578Y-52705684D01*
X112643381Y-52720433D01*
X112641584Y-52735526D01*
X112640186Y-52750962D01*
X112639187Y-52766741D01*
X112638388Y-52799327D01*
X111507439Y-52799327D01*
X111508386Y-52751938D01*
X111513010Y-52677528D01*
G37*
G36*
X97250201Y-56256509D02*
G01*
X97250030Y-56256241D01*
X97250201Y-56256241D01*
X97250201Y-56256509D01*
G37*
G36*
X110210738Y-55500000D02*
G01*
X109856106Y-55500000D01*
X109835956Y-55500302D01*
X109816581Y-55501207D01*
X109797982Y-55502716D01*
X109780158Y-55504828D01*
X109763112Y-55507542D01*
X109746843Y-55510858D01*
X109731354Y-55514776D01*
X109716643Y-55519295D01*
X109702713Y-55524414D01*
X109689564Y-55530135D01*
X109677196Y-55536455D01*
X109665611Y-55543375D01*
X109654810Y-55550895D01*
X109644792Y-55559013D01*
X109635560Y-55567730D01*
X109627113Y-55577045D01*
X109620286Y-55585804D01*
X109613900Y-55595067D01*
X109607954Y-55604834D01*
X109602448Y-55615108D01*
X109597383Y-55625888D01*
X109592758Y-55637175D01*
X109588574Y-55648970D01*
X109584831Y-55661274D01*
X109581527Y-55674088D01*
X109578664Y-55687412D01*
X109576242Y-55701247D01*
X109574260Y-55715594D01*
X109572718Y-55730455D01*
X109571617Y-55745828D01*
X109570957Y-55761716D01*
X109570736Y-55778120D01*
X109571095Y-55798024D01*
X109572171Y-55817168D01*
X109573963Y-55835553D01*
X109576471Y-55853178D01*
X109579695Y-55870045D01*
X109583634Y-55886155D01*
X109588288Y-55901508D01*
X109593656Y-55916106D01*
X109599739Y-55929948D01*
X109606536Y-55943036D01*
X109614045Y-55955371D01*
X109622268Y-55966953D01*
X109631203Y-55977783D01*
X109640851Y-55987862D01*
X109651210Y-55997191D01*
X109662281Y-56005770D01*
X109671505Y-56011962D01*
X109681358Y-56017751D01*
X109691842Y-56023138D01*
X109702956Y-56028124D01*
X109714701Y-56032708D01*
X109727077Y-56036892D01*
X109740084Y-56040676D01*
X109753724Y-56044059D01*
X109767995Y-56047043D01*
X109782900Y-56049628D01*
X109798437Y-56051814D01*
X109814609Y-56053602D01*
X109831414Y-56054992D01*
X109848853Y-56055984D01*
X109866927Y-56056579D01*
X109885636Y-56056778D01*
X110211005Y-56056778D01*
X110211005Y-56255972D01*
X110210738Y-56256241D01*
X109837315Y-56256241D01*
X109807982Y-56255838D01*
X109779380Y-56254629D01*
X109751509Y-56252615D01*
X109724370Y-56249793D01*
X109697965Y-56246165D01*
X109672293Y-56241730D01*
X109647356Y-56236486D01*
X109623154Y-56230435D01*
X109599688Y-56223575D01*
X109576960Y-56215906D01*
X109554969Y-56207428D01*
X109533716Y-56198140D01*
X109513203Y-56188042D01*
X109493430Y-56177134D01*
X109474398Y-56165415D01*
X109456108Y-56152884D01*
X109435184Y-56136840D01*
X109415601Y-56119813D01*
X109397361Y-56101804D01*
X109380465Y-56082813D01*
X109372521Y-56072948D01*
X109364914Y-56062838D01*
X109357643Y-56052482D01*
X109350709Y-56041880D01*
X109337851Y-56019938D01*
X109326341Y-55997011D01*
X109316182Y-55973100D01*
X109307373Y-55948204D01*
X109299916Y-55922323D01*
X109293812Y-55895456D01*
X109289062Y-55867602D01*
X109285668Y-55838762D01*
X109283631Y-55808934D01*
X109282952Y-55778120D01*
X109283726Y-55742416D01*
X109286047Y-55708090D01*
X109289917Y-55675142D01*
X109295334Y-55643572D01*
X109302300Y-55613380D01*
X109310813Y-55584566D01*
X109320873Y-55557130D01*
X109332482Y-55531072D01*
X109345639Y-55506392D01*
X109360343Y-55483090D01*
X109376595Y-55461166D01*
X109394395Y-55440619D01*
X109413743Y-55421451D01*
X109434639Y-55403660D01*
X109457082Y-55387248D01*
X109481074Y-55372213D01*
X109497848Y-55362854D01*
X109515353Y-55354104D01*
X109533588Y-55345962D01*
X109552554Y-55338429D01*
X109572252Y-55331503D01*
X109592682Y-55325184D01*
X109613844Y-55319470D01*
X109635738Y-55314361D01*
X109658365Y-55309856D01*
X109681726Y-55305954D01*
X109705821Y-55302654D01*
X109730650Y-55299957D01*
X109756213Y-55297860D01*
X109782512Y-55296363D01*
X109809545Y-55295466D01*
X109837315Y-55295167D01*
X110210738Y-55295167D01*
X110210738Y-55500000D01*
G37*
G36*
X103097584Y-56256374D02*
G01*
X103097450Y-56256509D01*
X103097450Y-56256241D01*
X103097718Y-56256241D01*
X103097584Y-56256374D01*
G37*
G36*
X105558120Y-55992616D02*
G01*
X105870872Y-55295166D01*
X106162415Y-55295166D01*
X105693423Y-56255971D01*
X105404026Y-56255971D01*
X104957852Y-55295166D01*
X105257987Y-55295166D01*
X105558120Y-55992616D01*
G37*
G36*
X104819865Y-55176777D02*
G01*
X104538523Y-55176777D01*
X104538523Y-54943488D01*
X104819865Y-54943488D01*
X104819865Y-55176777D01*
G37*
G36*
X99416912Y-55488990D02*
G01*
X98878925Y-55488990D01*
X98860738Y-55489321D01*
X98843728Y-55490312D01*
X98827893Y-55491963D01*
X98813233Y-55494276D01*
X98799749Y-55497249D01*
X98787439Y-55500882D01*
X98776303Y-55505176D01*
X98766341Y-55510131D01*
X98757553Y-55515747D01*
X98753599Y-55518803D01*
X98749938Y-55522023D01*
X98746570Y-55525409D01*
X98743495Y-55528960D01*
X98740713Y-55532676D01*
X98738225Y-55536558D01*
X98736029Y-55540604D01*
X98734126Y-55544816D01*
X98732516Y-55549193D01*
X98731199Y-55553735D01*
X98730175Y-55558442D01*
X98729443Y-55563314D01*
X98729005Y-55568352D01*
X98728858Y-55573555D01*
X98729336Y-55575808D01*
X98729760Y-55577943D01*
X98730127Y-55579963D01*
X98730435Y-55581877D01*
X98730680Y-55583690D01*
X98730859Y-55585409D01*
X98730968Y-55587040D01*
X98731006Y-55588588D01*
X98731625Y-55593791D01*
X98732478Y-55598828D01*
X98733563Y-55603701D01*
X98734882Y-55608408D01*
X98736432Y-55612950D01*
X98738216Y-55617327D01*
X98740233Y-55621538D01*
X98742482Y-55625585D01*
X98744964Y-55629466D01*
X98747679Y-55633182D01*
X98750627Y-55636733D01*
X98753808Y-55640119D01*
X98757221Y-55643340D01*
X98760867Y-55646395D01*
X98764746Y-55649286D01*
X98768858Y-55652011D01*
X98773203Y-55654571D01*
X98777780Y-55656966D01*
X98782590Y-55659195D01*
X98787633Y-55661260D01*
X98792909Y-55663159D01*
X98798418Y-55664894D01*
X98804159Y-55666463D01*
X98810133Y-55667866D01*
X98816340Y-55669105D01*
X98822780Y-55670179D01*
X98829453Y-55671087D01*
X98836358Y-55671830D01*
X98843496Y-55672408D01*
X98850868Y-55672821D01*
X98858471Y-55673069D01*
X98866308Y-55673152D01*
X99122684Y-55673152D01*
X99141931Y-55673344D01*
X99160611Y-55673919D01*
X99178724Y-55674879D01*
X99196270Y-55676222D01*
X99213248Y-55677949D01*
X99229658Y-55680060D01*
X99245499Y-55682555D01*
X99260771Y-55685433D01*
X99275474Y-55688696D01*
X99289606Y-55692342D01*
X99303169Y-55696372D01*
X99316161Y-55700785D01*
X99328582Y-55705583D01*
X99340432Y-55710764D01*
X99351710Y-55716329D01*
X99362415Y-55722278D01*
X99369204Y-55726466D01*
X99375776Y-55730823D01*
X99382134Y-55735350D01*
X99388275Y-55740046D01*
X99394201Y-55744913D01*
X99399912Y-55749949D01*
X99405407Y-55755154D01*
X99410687Y-55760530D01*
X99415751Y-55766074D01*
X99420600Y-55771788D01*
X99425233Y-55777672D01*
X99429651Y-55783724D01*
X99433853Y-55789946D01*
X99437840Y-55796338D01*
X99441611Y-55802898D01*
X99445167Y-55809628D01*
X99448507Y-55816527D01*
X99451632Y-55823594D01*
X99454541Y-55830831D01*
X99457235Y-55838237D01*
X99459713Y-55845811D01*
X99461976Y-55853555D01*
X99464023Y-55861467D01*
X99465855Y-55869548D01*
X99467471Y-55877798D01*
X99468872Y-55886216D01*
X99470057Y-55894803D01*
X99471027Y-55903559D01*
X99472320Y-55921575D01*
X99472751Y-55940265D01*
X99472751Y-55940266D01*
X99472459Y-55958104D01*
X99471581Y-55975475D01*
X99470118Y-55992379D01*
X99468070Y-56008815D01*
X99465437Y-56024782D01*
X99462219Y-56040280D01*
X99458415Y-56055307D01*
X99454027Y-56069863D01*
X99449053Y-56083948D01*
X99443494Y-56097560D01*
X99437350Y-56110698D01*
X99430621Y-56123362D01*
X99423306Y-56135551D01*
X99415407Y-56147264D01*
X99406922Y-56158501D01*
X99397852Y-56169260D01*
X99387961Y-56179789D01*
X99377617Y-56189634D01*
X99366818Y-56198794D01*
X99355566Y-56207271D01*
X99343859Y-56215065D01*
X99331697Y-56222178D01*
X99319080Y-56228609D01*
X99306007Y-56234360D01*
X99292477Y-56239431D01*
X99278491Y-56243824D01*
X99264049Y-56247539D01*
X99249148Y-56250576D01*
X99233790Y-56252938D01*
X99217974Y-56254623D01*
X99201700Y-56255634D01*
X99184966Y-56255971D01*
X98470067Y-56255971D01*
X98470067Y-56064026D01*
X99055838Y-56064026D01*
X99074271Y-56063629D01*
X99091514Y-56062440D01*
X99107568Y-56060458D01*
X99122432Y-56057683D01*
X99136108Y-56054116D01*
X99148594Y-56049755D01*
X99159891Y-56044602D01*
X99165094Y-56041728D01*
X99169999Y-56038656D01*
X99174607Y-56035386D01*
X99178918Y-56031918D01*
X99182932Y-56028251D01*
X99186648Y-56024386D01*
X99190067Y-56020323D01*
X99193188Y-56016062D01*
X99196013Y-56011602D01*
X99198540Y-56006945D01*
X99200769Y-56002089D01*
X99202702Y-55997035D01*
X99204337Y-55991783D01*
X99205675Y-55986332D01*
X99206715Y-55980684D01*
X99207459Y-55974837D01*
X99207904Y-55968792D01*
X99208053Y-55962549D01*
X99207904Y-55956317D01*
X99207459Y-55950303D01*
X99206715Y-55944507D01*
X99205675Y-55938927D01*
X99204337Y-55933562D01*
X99202702Y-55928410D01*
X99200769Y-55923470D01*
X99198540Y-55918740D01*
X99196013Y-55914220D01*
X99193188Y-55909907D01*
X99190067Y-55905801D01*
X99186648Y-55901901D01*
X99182932Y-55898203D01*
X99178918Y-55894709D01*
X99174607Y-55891415D01*
X99169999Y-55888320D01*
X99165094Y-55885424D01*
X99159891Y-55882725D01*
X99154391Y-55880221D01*
X99148594Y-55877911D01*
X99142500Y-55875794D01*
X99136108Y-55873868D01*
X99129419Y-55872132D01*
X99122432Y-55870585D01*
X99115149Y-55869225D01*
X99107568Y-55868050D01*
X99099689Y-55867061D01*
X99091514Y-55866254D01*
X99083041Y-55865629D01*
X99074271Y-55865184D01*
X99055838Y-55864830D01*
X98812080Y-55864830D01*
X98795008Y-55865690D01*
X98779597Y-55866273D01*
X98765796Y-55866605D01*
X98753556Y-55866709D01*
X98738368Y-55866555D01*
X98723607Y-55866093D01*
X98709274Y-55865322D01*
X98695369Y-55864243D01*
X98681891Y-55862856D01*
X98668842Y-55861160D01*
X98656220Y-55859156D01*
X98644026Y-55856844D01*
X98632260Y-55854223D01*
X98620922Y-55851294D01*
X98610012Y-55848057D01*
X98599529Y-55844512D01*
X98589475Y-55840658D01*
X98579848Y-55836496D01*
X98570649Y-55832025D01*
X98561878Y-55827246D01*
X98555090Y-55823148D01*
X98548518Y-55818856D01*
X98542160Y-55814370D01*
X98536019Y-55809691D01*
X98530092Y-55804817D01*
X98524382Y-55799750D01*
X98518886Y-55794489D01*
X98513607Y-55789033D01*
X98508542Y-55783384D01*
X98503694Y-55777539D01*
X98499061Y-55771501D01*
X98494643Y-55765268D01*
X98490441Y-55758840D01*
X98486454Y-55752217D01*
X98482683Y-55745400D01*
X98479127Y-55738387D01*
X98475787Y-55731180D01*
X98472662Y-55723777D01*
X98469753Y-55716180D01*
X98467059Y-55708386D01*
X98464581Y-55700398D01*
X98462318Y-55692214D01*
X98460271Y-55683834D01*
X98458439Y-55675258D01*
X98456823Y-55666487D01*
X98455422Y-55657520D01*
X98453267Y-55638997D01*
X98451974Y-55619689D01*
X98451543Y-55599596D01*
X98451903Y-55580866D01*
X98452984Y-55562731D01*
X98454785Y-55545191D01*
X98457307Y-55528245D01*
X98460548Y-55511894D01*
X98464511Y-55496137D01*
X98469194Y-55480975D01*
X98474597Y-55466408D01*
X98480720Y-55452435D01*
X98487564Y-55439056D01*
X98495129Y-55426273D01*
X98503414Y-55414084D01*
X98512419Y-55402489D01*
X98522145Y-55391489D01*
X98532591Y-55381084D01*
X98543758Y-55371273D01*
X98555645Y-55362057D01*
X98568252Y-55353435D01*
X98581580Y-55345409D01*
X98595629Y-55337976D01*
X98610397Y-55331138D01*
X98625887Y-55324895D01*
X98642096Y-55319247D01*
X98659026Y-55314193D01*
X98676677Y-55309733D01*
X98695048Y-55305868D01*
X98714139Y-55302598D01*
X98733951Y-55299922D01*
X98754483Y-55297841D01*
X98775735Y-55296355D01*
X98797708Y-55295463D01*
X98820402Y-55295166D01*
X99416912Y-55295166D01*
X99416912Y-55488990D01*
G37*
M02*
